<svg width="1024" height="1024" viewBox="0 0 1024 1024" xmlns="http://www.w3.org/2000/svg" preserveAspectRatio="xMidYMid meet"><svg x="244" y="157" width="555" height="642" xmlns="http://www.w3.org/2000/svg" preserveAspectRatio="none"><svg version="1.1" xmlns="http://www.w3.org/2000/svg" style="display: block;" width="555" height="642" viewBox="-0.23 0.00 1770.47 2048.00" preserveAspectRatio="none"><g id="svg-group-ce061d49-d728-4e85-9a78-d31ecd973316">
<path transform="translate(0,0)" fill="rgb(230,135,62)" d="M 878.493 0 L 923.412 0 C 937.289 11.1756 947.282 10.9197 964.46 12.5628 C 981.255 14.1691 998.334 15.2042 1015.07 17.1914 C 1055.06 22.2585 1094.64 30.0869 1133.55 40.6205 C 1203.04 58.8988 1265.53 85.5641 1328.26 120.08 C 1501.15 216.484 1635.73 369.284 1709.53 552.961 C 1725.14 592.752 1738.17 633.507 1748.53 674.975 C 1753.96 696.737 1758.26 718.762 1761.44 740.964 C 1762.76 750.456 1764.48 779.288 1770 786.209 L 1770 956.978 C 1764.82 963.664 1759.74 1015.32 1757.75 1027.63 C 1752.62 1059.32 1746.23 1084.52 1737.5 1115.09 C 1672.7 1337.65 1522.46 1525.53 1319.59 1637.69 C 1112.6 1750.15 869.627 1776.51 643.332 1711.05 C 579.231 1692.73 517.456 1667.09 459.228 1634.62 C 420.565 1613.27 389.557 1595.14 353.567 1568.49 C 208.338 1459.65 101.511 1307.42 48.5483 1133.83 C 38.4863 1101.35 30.2251 1068.34 23.8025 1034.94 C 20.8553 1018.23 18.5029 1001.41 16.7499 984.525 C 13.9362 957.208 15.4641 943.082 1.8573 918.451 C 2.38084 916.007 3.26024 908.452 3.02569 906.205 C 1.79499 894.413 6.57119 848.321 0 840.613 L 0 838.846 C 18.0575 814.56 15.7772 759.405 22.0749 727.504 C 37.4702 649.521 59.1261 574.879 93.2147 502.887 C 207.234 267.954 420.985 96.8544 675.183 37.0434 C 713.62 28.0242 752.545 21.232 791.764 16.7006 C 818.408 13.6035 856.43 14.8671 878.493 0 z M 890.75 1730.98 C 940.113 1731.02 995.573 1729.71 1044.14 1721.46 C 1399.97 1661 1697.82 1353.7 1747.73 996.292 C 1754.16 950.252 1754.88 905.444 1754.67 859.205 C 1752.71 681.644 1693.96 509.372 1587.02 367.617 C 1560.45 332.397 1527.65 296.894 1496.21 265.747 C 1337.42 109.138 1123.41 21.2696 900.394 21.1199 C 896.466 21.1502 892.539 21.2575 888.615 21.4418 C 865.28 22.1184 839.149 22.694 815.903 24.9116 C 594.516 46.0323 407 136.46 254.614 298.128 C 125.038 435.596 49.435 595.54 28.1182 784.279 C 24.2433 818.587 24.2743 873.931 25.3822 909.654 C 34.1095 1131.59 129.404 1341.29 290.853 1493.82 C 412.897 1609.87 566.183 1687.75 731.878 1717.87 C 775.603 1726.2 824.503 1731.93 869.167 1732.02 C 876.073 1732.03 883.734 1730.89 890.75 1730.98 z"/>
<path transform="translate(0,0)" fill="rgb(204,92,117)" d="M 767.701 541.953 C 768.275 540.326 768.905 538.719 769.589 537.135 C 772.674 529.991 778.038 520.86 781.841 513.86 C 809.551 462.923 837.212 411.846 865.513 361.248 C 869.321 354.44 876.568 343.162 885.198 347.539 C 888.564 352.033 889.049 356.435 889.431 362.018 C 891.276 363.491 891.903 364.112 893.988 365.283 C 894.674 359.648 894.921 353.617 899.479 349.825 C 906.781 348.282 914.473 356.602 917.813 362.499 C 933.647 390.456 947.761 419.57 963.412 447.643 L 994.718 503.153 C 1001.95 515.689 1010.48 529.21 1016.42 542.359 C 1028.48 534.392 1039.86 521.811 1050.77 512.229 C 1072.97 493.056 1098.08 477.537 1125.15 466.255 C 1129.72 464.299 1141.92 458.749 1146.22 460.507 C 1154.35 463.829 1160.48 484.546 1162.79 491.973 C 1172.11 521.966 1179.65 561.362 1181.78 592.678 C 1182.79 607.538 1181.78 637.61 1181.7 653.353 C 1220.47 635.093 1248.13 621.414 1290.86 613.32 C 1307.52 610.166 1334.47 608.214 1349.06 604.26 C 1355.97 606.799 1360.34 608.322 1366.53 612.433 C 1368.18 661.959 1361.75 692.237 1347.19 739.67 C 1344.12 749.658 1321.25 796.049 1322.55 800.333 C 1330.64 806.976 1359.93 798.061 1370.77 798.858 C 1409.15 801.677 1447.45 805.391 1483.86 818.646 C 1510.43 827.066 1510.38 834.853 1501.28 859.297 C 1488.34 894.018 1466.97 922.314 1442.16 949.474 C 1434.51 957.853 1405.32 982.795 1403 991.801 C 1449.78 1007.65 1492.55 1027.34 1530.92 1058.74 C 1542.95 1068.58 1552.07 1074.36 1559.57 1088.17 C 1556.78 1105.45 1552.4 1112.95 1537.41 1123.25 C 1492.68 1153.97 1442.89 1182.78 1390.87 1198.85 C 1375.25 1203.68 1352.92 1208.04 1336.78 1211.31 C 1321.4 1222.38 1303.96 1240.44 1286.81 1253.48 C 1229.57 1296.49 1166.05 1330.45 1098.49 1354.17 C 1077.33 1361.5 1055.88 1368 1034.21 1373.65 C 1023.16 1376.49 937.427 1395.14 934.9 1384.74 C 938.143 1377.29 962.492 1362.58 971.333 1354.31 C 989.464 1337.37 999.891 1313.76 1000.2 1288.95 C 1001.11 1247.4 975.721 1205.48 938.536 1188.12 C 905.249 1172.59 890.893 1172.95 893.39 1129.08 L 888.051 1129.18 C 888.107 1138.61 885.864 1154.56 884.793 1164.49 C 872.33 1182.5 851.624 1186.46 833.435 1197.29 C 765.982 1237.41 760.248 1320.26 823.058 1367.88 C 828.591 1372.07 848.832 1380.02 843.718 1388.06 C 836.315 1391.87 822.601 1386.96 814.49 1386.23 C 809.088 1385.74 802.337 1386.06 797.169 1385.22 C 764.867 1379.99 727.597 1372.28 696.541 1362.35 C 624.084 1339.11 556.53 1302.72 497.266 1255 C 480.707 1241.63 465.489 1225.06 451.111 1213.39 C 436.582 1209.02 421.046 1206.65 406.351 1202.56 C 371.102 1192.74 337.337 1178.43 305.359 1160.67 C 285.82 1149.81 267.912 1136.12 249.872 1122.99 C 243.294 1118.2 224.279 1106.66 221.71 1099.52 C 217.237 1087.09 239.221 1069.19 247.901 1062.6 C 276.131 1039.82 307.14 1022.64 340.344 1008.39 C 352.788 1003.06 365.387 998.784 377.754 993.531 C 374.332 986.5 353.219 962.019 342.782 953.554 C 328.28 941.793 259.916 849.865 277.932 832.306 C 295.165 815.508 366.639 804.245 392.522 801.018 C 404.85 799.48 443.732 802.446 460.813 802.443 C 454.479 787.017 445.026 770.988 439.604 755.356 C 429.596 726.499 423.612 695.918 418.063 665.907 C 414.329 645.715 412.434 627.65 418.992 607.84 C 428.715 607.779 449.373 607.28 458.797 608.385 C 493.112 612.407 532.093 621.241 563.661 635.46 C 578.589 642.184 593.582 651.119 607.853 658.964 C 600 600.224 605.497 525.906 632.032 472.003 C 633.639 468.738 636.395 462.469 639.954 461.655 C 647.409 459.951 657.773 465.996 664.244 469.197 C 689.243 481.565 709.364 494.069 730.7 512.104 C 743.087 522.573 753.876 533.954 767.701 541.953 z M 803.847 685.134 C 809.031 680.201 835.5 614.29 842.706 601.092 C 848.702 600.958 855.231 600.519 861.039 601.688 L 861.791 601.907 C 876.674 603.032 884.478 609.536 887.456 624.233 L 888.194 625.137 C 896.497 620.811 899.067 590.99 921.966 596.375 C 933.616 599.115 941.605 610.922 946.998 619.94 C 950.758 626.251 954.162 632.767 957.193 639.458 C 960.588 647.018 974.826 684.459 978.493 687.065 C 981.4 685.587 980.097 686.633 981.891 683.131 C 976.041 663.689 976.861 652.36 968.228 630.046 C 954.046 593.389 935.152 560.366 920.778 524.119 C 910.559 498.35 904.234 466.547 900.46 439.266 C 898.334 423.895 894.876 404.128 894.567 388.91 L 889.039 389.049 C 890.431 404.782 879.961 474.055 874.372 492.676 C 870.274 506.333 858.743 532.848 853.351 546.439 C 844.931 567.663 791.964 666.906 803.847 685.134 z M 884.691 745.153 C 886.488 749.685 887.555 753.693 890.997 757.007 C 893.609 757.77 892.314 757.796 894.998 756.676 C 894.59 745.827 894.039 740.327 897.25 730.101 L 895.848 728.676 C 892.55 725.197 893.346 724.881 889.562 724.165 C 884.729 728.595 886.37 737.379 884.691 745.153 z M 889.176 833.643 C 877.345 849.701 879.039 960.758 891.542 969.306 C 900.161 950.15 905.442 846.398 889.176 833.643 z"/>
<path transform="translate(0,0)" fill="rgb(226,153,163)" d="M 767.701 541.953 C 768.275 540.326 768.905 538.719 769.589 537.135 C 772.674 529.991 778.038 520.86 781.841 513.86 C 809.551 462.923 837.212 411.846 865.513 361.248 C 869.321 354.44 876.568 343.162 885.198 347.539 C 888.564 352.033 889.049 356.435 889.431 362.018 C 891.276 363.491 891.903 364.112 893.988 365.283 C 894.168 372.84 894.158 381.454 894.567 388.91 L 889.039 389.049 C 890.431 404.782 879.961 474.055 874.372 492.676 C 870.274 506.333 858.743 532.848 853.351 546.439 C 844.931 567.663 791.964 666.906 803.847 685.134 C 809.031 680.201 835.5 614.29 842.706 601.092 C 848.702 600.958 855.231 600.519 861.039 601.688 L 861.791 601.907 C 862.648 608.247 872.101 620.327 874.956 628.945 C 878.378 649.893 886.841 729.627 870.712 742.494 L 872.779 744.568 C 874.702 747.588 874.742 754.101 875.691 757.956 C 884.805 795.229 875.547 831.812 868.262 868.42 C 864.841 885.608 868.322 905.315 869.753 923.135 C 874.397 980.983 893.535 1048.28 857.355 1100.19 C 854.599 1104.15 851.709 1107.3 852.232 1112.16 C 856.127 1107.58 855.103 1107.02 861.198 1104.56 L 861.68 1105.56 C 870.726 1104.83 878.05 1104.85 886.719 1108.3 L 887.669 1110.71 C 890.329 1111.65 888.91 1111.57 892.053 1110.16 L 892.955 1112.81 L 893.003 1114.68 C 893.153 1117.72 893.76 1126.59 893.39 1129.08 L 888.051 1129.18 C 888.107 1138.61 885.864 1154.56 884.793 1164.49 C 872.33 1182.5 851.624 1186.46 833.435 1197.29 C 765.982 1237.41 760.248 1320.26 823.058 1367.88 C 828.591 1372.07 848.832 1380.02 843.718 1388.06 C 836.315 1391.87 822.601 1386.96 814.49 1386.23 C 809.088 1385.74 802.337 1386.06 797.169 1385.22 C 764.867 1379.99 727.597 1372.28 696.541 1362.35 C 624.084 1339.11 556.53 1302.72 497.266 1255 C 480.707 1241.63 465.489 1225.06 451.111 1213.39 C 436.582 1209.02 421.046 1206.65 406.351 1202.56 C 371.102 1192.74 337.337 1178.43 305.359 1160.67 C 285.82 1149.81 267.912 1136.12 249.872 1122.99 C 243.294 1118.2 224.279 1106.66 221.71 1099.52 C 217.237 1087.09 239.221 1069.19 247.901 1062.6 C 276.131 1039.82 307.14 1022.64 340.344 1008.39 C 352.788 1003.06 365.387 998.784 377.754 993.531 C 374.332 986.5 353.219 962.019 342.782 953.554 C 328.28 941.793 259.916 849.865 277.932 832.306 C 295.165 815.508 366.639 804.245 392.522 801.018 C 404.85 799.48 443.732 802.446 460.813 802.443 C 454.479 787.017 445.026 770.988 439.604 755.356 C 429.596 726.499 423.612 695.918 418.063 665.907 C 414.329 645.715 412.434 627.65 418.992 607.84 C 428.715 607.779 449.373 607.28 458.797 608.385 C 493.112 612.407 532.093 621.241 563.661 635.46 C 578.589 642.184 593.582 651.119 607.853 658.964 C 600 600.224 605.497 525.906 632.032 472.003 C 633.639 468.738 636.395 462.469 639.954 461.655 C 647.409 459.951 657.773 465.996 664.244 469.197 C 689.243 481.565 709.364 494.069 730.7 512.104 C 743.087 522.573 753.876 533.954 767.701 541.953 z"/>
<path transform="translate(0,0)" fill="rgb(230,135,62)" d="M 767.701 541.953 C 768.275 540.326 768.905 538.719 769.589 537.135 C 772.674 529.991 778.038 520.86 781.841 513.86 C 809.551 462.923 837.212 411.846 865.513 361.248 C 869.321 354.44 876.568 343.162 885.198 347.539 C 888.564 352.033 889.049 356.435 889.431 362.018 C 891.276 363.491 891.903 364.112 893.988 365.283 C 894.168 372.84 894.158 381.454 894.567 388.91 L 889.039 389.049 C 890.431 404.782 879.961 474.055 874.372 492.676 C 870.274 506.333 858.743 532.848 853.351 546.439 C 844.931 567.663 791.964 666.906 803.847 685.134 C 809.031 680.201 835.5 614.29 842.706 601.092 C 848.702 600.958 855.231 600.519 861.039 601.688 L 861.791 601.907 C 862.648 608.247 872.101 620.327 874.956 628.945 C 878.378 649.893 886.841 729.627 870.712 742.494 L 872.779 744.568 C 874.702 747.588 874.742 754.101 875.691 757.956 C 884.805 795.229 875.547 831.812 868.262 868.42 C 864.841 885.608 868.322 905.315 869.753 923.135 C 874.397 980.983 893.535 1048.28 857.355 1100.19 C 854.599 1104.15 851.709 1107.3 852.232 1112.16 C 856.127 1107.58 855.103 1107.02 861.198 1104.56 L 861.68 1105.56 C 870.726 1104.83 878.05 1104.85 886.719 1108.3 L 887.669 1110.71 C 890.329 1111.65 888.91 1111.57 892.053 1110.16 L 892.955 1112.81 L 893.003 1114.68 C 893.153 1117.72 893.76 1126.59 893.39 1129.08 L 888.051 1129.18 C 888.107 1138.61 885.864 1154.56 884.793 1164.49 C 872.33 1182.5 851.624 1186.46 833.435 1197.29 C 765.982 1237.41 760.248 1320.26 823.058 1367.88 C 828.591 1372.07 848.832 1380.02 843.718 1388.06 C 836.315 1391.87 822.601 1386.96 814.49 1386.23 C 809.088 1385.74 802.337 1386.06 797.169 1385.22 C 764.867 1379.99 727.597 1372.28 696.541 1362.35 C 624.084 1339.11 556.53 1302.72 497.266 1255 C 480.707 1241.63 465.489 1225.06 451.111 1213.39 C 459.403 1213.31 474.64 1215.43 482.926 1216.73 C 484.297 1211.86 492.519 1210.73 497.408 1209.11 C 559.669 1188.51 625.279 1164.96 676.337 1121.91 C 691.901 1106.58 720.312 1088.8 726.523 1065.85 C 722.166 1057.37 715.515 1038.72 711.679 1029.3 C 688.609 972.593 676.034 921.169 667.128 861.003 C 659.705 807.246 668.659 763.245 684.234 711.955 C 685.546 706.283 687.373 701.786 689.772 696.496 C 706.695 659.171 726.769 623.914 747.154 588.415 C 755.51 573.864 763.279 558.185 767.701 541.953 z"/>
<path transform="translate(0,0)" fill="rgb(230,135,62)" d="M 767.701 541.953 C 768.275 540.326 768.905 538.719 769.589 537.135 C 772.674 529.991 778.038 520.86 781.841 513.86 C 809.551 462.923 837.212 411.846 865.513 361.248 C 869.321 354.44 876.568 343.162 885.198 347.539 C 888.564 352.033 889.049 356.435 889.431 362.018 C 891.276 363.491 891.903 364.112 893.988 365.283 C 894.168 372.84 894.158 381.454 894.567 388.91 L 889.039 389.049 C 890.431 404.782 879.961 474.055 874.372 492.676 C 870.274 506.333 858.743 532.848 853.351 546.439 C 844.931 567.663 791.964 666.906 803.847 685.134 C 804.302 689.166 802.441 696.265 801.462 700.504 C 790.126 749.609 759.953 795.645 740.825 842.26 C 734.982 856.498 725.915 878.735 723.705 893.488 C 713.436 962.036 752.099 996.062 726.523 1065.85 C 722.166 1057.37 715.515 1038.72 711.679 1029.3 C 688.609 972.593 676.034 921.169 667.128 861.003 C 659.705 807.246 668.659 763.245 684.234 711.955 C 685.546 706.283 687.373 701.786 689.772 696.496 C 706.695 659.171 726.769 623.914 747.154 588.415 C 755.51 573.864 763.279 558.185 767.701 541.953 z"/>
<path transform="translate(0,0)" fill="rgb(232,228,229)" d="M 889.039 389.049 C 887.629 385.735 887.159 364.067 889.431 362.018 C 891.276 363.491 891.903 364.112 893.988 365.283 C 894.168 372.84 894.158 381.454 894.567 388.91 L 889.039 389.049 z"/>
<path transform="translate(0,0)" fill="rgb(226,153,163)" d="M 861.198 1104.56 L 861.68 1105.56 C 870.726 1104.83 878.05 1104.85 886.719 1108.3 L 887.669 1110.71 C 890.329 1111.65 888.91 1111.57 892.053 1110.16 L 892.955 1112.81 L 893.003 1114.68 C 893.153 1117.72 893.76 1126.59 893.39 1129.08 L 888.051 1129.18 C 888.107 1138.61 885.864 1154.56 884.793 1164.49 C 872.33 1182.5 851.624 1186.46 833.435 1197.29 C 765.982 1237.41 760.248 1320.26 823.058 1367.88 C 828.591 1372.07 848.832 1380.02 843.718 1388.06 C 836.315 1391.87 822.601 1386.96 814.49 1386.23 C 809.088 1385.74 802.337 1386.06 797.169 1385.22 C 764.867 1379.99 727.597 1372.28 696.541 1362.35 C 624.084 1339.11 556.53 1302.72 497.266 1255 C 480.707 1241.63 465.489 1225.06 451.111 1213.39 C 459.403 1213.31 474.64 1215.43 482.926 1216.73 L 493.099 1217.04 C 496.883 1217.87 505.372 1218.44 509.519 1218.65 C 593.355 1222.77 677.401 1213.77 755.951 1182.93 C 790.247 1169.47 805.127 1162.31 832.738 1138.08 C 834.919 1130.35 846.611 1121.04 852.232 1112.16 C 856.127 1107.58 855.103 1107.02 861.198 1104.56 z"/>
<path transform="translate(0,0)" fill="rgb(217,54,94)" d="M 861.198 1104.56 L 861.68 1105.56 C 855.09 1114.78 844.01 1134.75 832.738 1138.08 C 834.919 1130.35 846.611 1121.04 852.232 1112.16 C 856.127 1107.58 855.103 1107.02 861.198 1104.56 z"/>
<path transform="translate(0,0)" fill="rgb(232,228,229)" d="M 888.051 1129.18 C 887.712 1122.74 885.907 1116.81 893.003 1114.68 C 893.153 1117.72 893.76 1126.59 893.39 1129.08 L 888.051 1129.18 z"/>
<path transform="translate(0,0)" fill="rgb(177,51,58)" d="M 842.706 601.092 C 848.702 600.958 855.231 600.519 861.039 601.688 L 861.791 601.907 C 862.648 608.247 872.101 620.327 874.956 628.945 C 873.036 637.154 870.627 641.77 866.931 649.363 C 862.495 649.014 852.964 651.04 848.371 652.145 C 846.668 661.147 844.571 673.749 841.5 682.142 C 825.56 733.36 802.029 792.184 778.316 840.214 C 773.905 849.149 766.491 864.444 760.947 871.902 C 764.927 857.653 771.775 842.274 777.076 828.256 L 818.435 721.687 C 827.065 699.026 840.997 667.715 840.588 644.194 C 826.365 665.187 819.431 688.024 810.621 711.605 C 804.653 727.731 798.078 743.626 790.909 759.255 C 771.248 802.632 740.698 856.88 731.513 902.831 C 722.906 945.888 758.633 1025.32 738.036 1066.71 C 709.052 1124.95 627.705 1168.02 569.47 1190.61 C 555.048 1196.26 540.453 1201.47 525.707 1206.22 C 517.12 1208.99 500.917 1213.69 493.099 1217.04 L 482.926 1216.73 C 484.297 1211.86 492.519 1210.73 497.408 1209.11 C 559.669 1188.51 625.279 1164.96 676.337 1121.91 C 691.901 1106.58 720.312 1088.8 726.523 1065.85 C 752.099 996.062 713.436 962.036 723.705 893.488 C 725.915 878.735 734.982 856.498 740.825 842.26 C 759.953 795.645 790.126 749.609 801.462 700.504 C 802.441 696.265 804.302 689.166 803.847 685.134 C 809.031 680.201 835.5 614.29 842.706 601.092 z"/>
<path transform="translate(0,0)" fill="rgb(230,135,62)" d="M 861.039 601.688 L 861.791 601.907 C 862.648 608.247 872.101 620.327 874.956 628.945 C 873.036 637.154 870.627 641.77 866.931 649.363 C 862.495 649.014 852.964 651.04 848.371 652.145 C 848.981 642.395 852.213 609.327 857.121 602.257 L 861.039 601.688 z"/>
<path transform="translate(0,0)" fill="rgb(226,153,163)" d="M 848.371 652.145 C 852.964 651.04 862.495 649.014 866.931 649.363 L 865.679 651.163 C 850.15 703.535 839.704 757.65 819.407 808.483 C 814.633 820.44 798.046 871.962 790.594 878.467 L 789.652 877.697 C 789.245 868.331 793.574 858.77 796.332 849.927 C 809.152 808.818 823.535 767.82 834.844 726.32 C 837.385 716.995 839.735 707.667 842.655 698.471 C 841.841 691.609 843.644 690.692 841.5 682.142 C 844.571 673.749 846.668 661.147 848.371 652.145 z"/>
<path transform="translate(0,0)" fill="rgb(238,143,137)" d="M 848.371 652.145 C 852.964 651.04 862.495 649.014 866.931 649.363 L 865.679 651.163 C 862.156 651.709 861.603 651.131 859.664 653.168 L 859.466 654.401 C 857.444 666.472 847.827 686.608 842.655 698.471 C 841.841 691.609 843.644 690.692 841.5 682.142 C 844.571 673.749 846.668 661.147 848.371 652.145 z"/>
<path transform="translate(0,0)" fill="rgb(204,92,117)" d="M 872.779 744.568 C 853.892 758.955 837.846 846.27 828.806 870.916 C 824.902 881.558 822.724 900.832 817.252 911.329 L 815.906 911.678 L 814.985 909.886 C 814.171 892.363 832.922 844.655 837.529 824.066 C 841.705 805.402 851.983 747.953 870.712 742.494 L 872.779 744.568 z"/>
<path transform="translate(0,0)" fill="rgb(217,54,94)" d="M 386.095 992.437 C 404.045 1005.31 421.308 1019.24 439.938 1031.11 C 473.653 1052.61 511.093 1071.94 548.328 1086.3 C 576.987 1097.2 606.411 1105.98 636.361 1112.55 C 645.893 1114.72 670.452 1117.6 676.337 1121.91 C 625.279 1164.96 559.669 1188.51 497.408 1209.11 C 492.519 1210.73 484.297 1211.86 482.926 1216.73 C 474.64 1215.43 459.403 1213.31 451.111 1213.39 C 436.582 1209.02 421.046 1206.65 406.351 1202.56 C 371.102 1192.74 337.337 1178.43 305.359 1160.67 C 285.82 1149.81 267.912 1136.12 249.872 1122.99 C 243.294 1118.2 224.279 1106.66 221.71 1099.52 C 217.237 1087.09 239.221 1069.19 247.901 1062.6 C 276.131 1039.82 307.14 1022.64 340.344 1008.39 C 352.788 1003.06 365.387 998.784 377.754 993.531 C 380.883 994.007 383.013 993.192 386.095 992.437 z"/>
<path transform="translate(0,0)" fill="rgb(204,92,117)" d="M 466.095 808.134 C 516.623 809.065 568.76 823.513 616.024 840.833 C 630.059 845.976 651.248 858.503 665.315 860.492 L 667.128 861.003 C 676.034 921.169 688.609 972.593 711.679 1029.3 C 715.515 1038.72 722.166 1057.37 726.523 1065.85 C 720.312 1088.8 691.901 1106.58 676.337 1121.91 C 670.452 1117.6 645.893 1114.72 636.361 1112.55 C 606.411 1105.98 576.987 1097.2 548.328 1086.3 C 511.093 1071.94 473.653 1052.61 439.938 1031.11 C 421.308 1019.24 404.045 1005.31 386.095 992.437 C 433.674 980.11 480.662 970.713 529.808 968.504 C 549.835 967.604 572.991 967.949 593.215 967.88 C 550.247 923.906 493.686 862.563 466.095 808.134 z"/>
<path transform="translate(0,0)" fill="rgb(177,51,58)" d="M 610.611 662.286 C 641.352 680.103 656.329 689.315 684.234 711.955 C 668.659 763.245 659.705 807.246 667.128 861.003 L 665.315 860.492 C 656.759 837.953 646.212 815.252 637.974 793.058 C 624.16 755.843 611.488 701.993 610.611 662.286 z"/>
<path transform="translate(0,0)" fill="rgb(226,153,163)" d="M 1016.42 542.359 C 1028.48 534.392 1039.86 521.811 1050.77 512.229 C 1072.97 493.056 1098.08 477.537 1125.15 466.255 C 1129.72 464.299 1141.92 458.749 1146.22 460.507 C 1154.35 463.829 1160.48 484.546 1162.79 491.973 C 1172.11 521.966 1179.65 561.362 1181.78 592.678 C 1182.79 607.538 1181.78 637.61 1181.7 653.353 C 1220.47 635.093 1248.13 621.414 1290.86 613.32 C 1307.52 610.166 1334.47 608.214 1349.06 604.26 C 1355.97 606.799 1360.34 608.322 1366.53 612.433 C 1368.18 661.959 1361.75 692.237 1347.19 739.67 C 1344.12 749.658 1321.25 796.049 1322.55 800.333 C 1330.64 806.976 1359.93 798.061 1370.77 798.858 C 1409.15 801.677 1447.45 805.391 1483.86 818.646 C 1510.43 827.066 1510.38 834.853 1501.28 859.297 C 1488.34 894.018 1466.97 922.314 1442.16 949.474 C 1434.51 957.853 1405.32 982.795 1403 991.801 C 1400.56 991.413 1401.1 991.543 1398.56 991.825 C 1377.9 990.485 1345.3 978.566 1322.4 974.804 C 1275.39 967.083 1234.07 967.516 1186.84 967.858 C 1242.36 913.73 1274.47 875.791 1315.41 809.026 C 1251.07 806.652 1173.88 837.321 1117.03 864.704 L 1118.6 860.117 C 1116.73 849.573 1118.31 819.863 1117.6 807.248 C 1115.73 773.928 1108.55 742.705 1099.1 710.802 C 1087.32 683.402 1076.11 659.257 1061.23 633.578 C 1054.48 621.939 1015.48 551.558 1016.42 542.359 z"/>
<path transform="translate(0,0)" fill="rgb(177,51,58)" d="M 1099.1 710.802 C 1118.12 696.766 1153.75 671.77 1174.88 660.86 C 1172.57 715.513 1153.54 770.478 1134.07 821.145 C 1129.57 832.877 1123.71 848.839 1118.6 860.117 C 1116.73 849.573 1118.31 819.863 1117.6 807.248 C 1115.73 773.928 1108.55 742.705 1099.1 710.802 z"/>
<path transform="translate(0,0)" fill="rgb(217,54,94)" d="M 1398.56 991.825 C 1401.1 991.543 1400.56 991.413 1403 991.801 C 1449.78 1007.65 1492.55 1027.34 1530.92 1058.74 C 1542.95 1068.58 1552.07 1074.36 1559.57 1088.17 C 1556.78 1105.45 1552.4 1112.95 1537.41 1123.25 C 1492.68 1153.97 1442.89 1182.78 1390.87 1198.85 C 1375.25 1203.68 1352.92 1208.04 1336.78 1211.31 C 1275.31 1209.87 1155.66 1157.24 1107.36 1118.57 C 1168.3 1110.97 1212.5 1094.69 1268.78 1070.09 C 1318.79 1048.24 1353.03 1020.98 1398.56 991.825 z"/>
<path transform="translate(0,0)" fill="rgb(230,135,62)" d="M 893.988 365.283 C 894.674 359.648 894.921 353.617 899.479 349.825 C 906.781 348.282 914.473 356.602 917.813 362.499 C 933.647 390.456 947.761 419.57 963.412 447.643 L 994.718 503.153 C 1001.95 515.689 1010.48 529.21 1016.42 542.359 C 1015.48 551.558 1054.48 621.939 1061.23 633.578 C 1076.11 659.257 1087.32 683.402 1099.1 710.802 C 1108.55 742.705 1115.73 773.928 1117.6 807.248 C 1118.31 819.863 1116.73 849.573 1118.6 860.117 L 1117.03 864.704 C 1114.71 872.315 1112.78 880.126 1111.2 887.89 C 1101.37 936.04 1087.05 982.738 1070.17 1028.85 C 1065.51 1041.58 1061.81 1054.74 1056.82 1067.44 C 1023.98 1013.65 1068.19 951.669 1057.49 894.853 C 1050.4 857.194 1028.75 819.33 1012.62 784.71 C 1002.28 762.509 996.647 748.039 989.13 725.115 C 989.109 714.01 987.68 704.743 982.713 694.898 C 982.766 690.036 982.875 688.026 981.891 683.131 C 976.041 663.689 976.861 652.36 968.228 630.046 C 954.046 593.389 935.152 560.366 920.778 524.119 C 910.559 498.35 904.234 466.547 900.46 439.266 C 898.334 423.895 894.876 404.128 894.567 388.91 C 894.158 381.454 894.168 372.84 893.988 365.283 z"/>
<path transform="translate(0,0)" fill="rgb(230,135,62)" d="M 886.003 1069.02 C 886.296 1062.16 885.94 1058.38 889.117 1052.23 L 890.471 1052.43 C 892.176 1055.87 891.92 1058.91 892.086 1062.81 C 904.653 1071.42 912.632 1110.66 892.955 1112.81 L 892.053 1110.16 C 888.91 1111.57 890.329 1111.65 887.669 1110.71 L 886.719 1108.3 C 887.463 1096.42 886.177 1081.45 886.003 1069.02 z"/>
<path transform="translate(0,0)" fill="rgb(232,228,229)" d="M 886.003 1069.02 C 886.296 1062.16 885.94 1058.38 889.117 1052.23 L 890.471 1052.43 C 892.176 1055.87 891.92 1058.91 892.086 1062.81 C 891.822 1076.45 891.156 1096.76 892.053 1110.16 C 888.91 1111.57 890.329 1111.65 887.669 1110.71 L 886.719 1108.3 C 887.463 1096.42 886.177 1081.45 886.003 1069.02 z"/>
<path transform="translate(0,0)" fill="rgb(230,135,62)" d="M 861.198 1104.56 C 870.255 1091.6 874.554 1077.83 886.003 1069.02 C 886.177 1081.45 887.463 1096.42 886.719 1108.3 C 878.05 1104.85 870.726 1104.83 861.68 1105.56 L 861.198 1104.56 z"/>
<path transform="translate(0,0)" fill="rgb(232,228,229)" d="M 982.713 694.898 C 987.68 704.743 989.109 714.01 989.13 725.115 C 984.966 719.262 978.709 701.595 982.713 694.898 z"/>
<path transform="translate(0,0)" fill="rgb(218,189,188)" d="M 888.194 625.137 C 891.531 630.192 891.491 642.643 890.695 648.564 L 889.762 649.08 C 886.681 644.28 884.595 628.707 887.456 624.233 L 888.194 625.137 z"/>
<path transform="translate(0,0)" fill="rgb(230,135,62)" d="M 894.318 716.662 C 899.513 700.282 898.725 700.878 900.882 683.994 C 903.91 660.299 893.285 623.662 915.386 609.189 C 917.681 607.687 919.775 607.554 922.253 608.172 C 925.811 611.862 927.114 639.164 931.082 650.801 L 917.725 650.855 C 920.948 663.038 926.444 674.956 929.286 686.862 C 938.435 725.192 948.257 763.634 962.542 800.451 C 967.278 812.656 981.616 868.199 989.649 874.204 C 996.248 862.873 937.253 737.075 942.549 705.409 L 943.987 704.054 C 953.859 705.323 960.758 734.172 964.646 742.123 C 974.458 762.186 996.622 840.675 1010.96 853.546 C 1015.32 848.663 976.732 764.378 974.521 752.828 C 971.523 737.156 937.06 674.062 945.041 661.093 L 946.96 660.869 C 960.083 671.463 969.002 718.838 975.071 734.456 C 975.867 736.505 982.534 733.568 983.602 736.353 C 987.471 746.877 991.697 757.017 995.931 767.404 C 998.655 774.089 1003.42 780.601 1005.9 786.961 C 1021.68 827.26 1047.8 865.007 1053.32 908.556 C 1055.05 922.242 1051.14 939.155 1049.33 952.845 C 1036.15 1023.37 1023.51 1064.44 1085.7 1115.45 C 1129.69 1151.53 1170.37 1172.89 1224.03 1193.17 C 1237.66 1198.32 1271.79 1208.73 1282.4 1215.48 C 1259.9 1221.33 1245.07 1220.75 1221.97 1220.39 C 1157.82 1219.67 1094.26 1207.96 1034.06 1185.77 C 979.306 1165.99 950.84 1149.48 921.666 1095.23 C 885.062 1027.16 911.861 963.145 912.69 890.711 C 913.121 853.074 881.142 773.505 918.715 750.454 C 926.575 772.918 954.113 898.994 964.349 908.813 L 964.583 908.802 C 965.243 901.406 962.793 891.989 961.162 884.717 C 957.078 866.503 927.195 753.544 920.737 746.488 C 919.358 744.981 917.658 744.486 915.665 744.449 C 909.337 744.329 903.167 749.009 898.458 752.81 C 896.989 754.983 897.113 755.328 894.998 756.676 C 894.59 745.827 894.039 740.327 897.25 730.101 L 895.848 728.676 C 896.981 724.142 896.015 721.086 894.318 716.662 z"/>
<path transform="translate(0,0)" fill="rgb(226,153,163)" d="M 897.25 730.101 C 899.614 739.976 901.611 743.423 898.458 752.81 C 896.989 754.983 897.113 755.328 894.998 756.676 C 894.59 745.827 894.039 740.327 897.25 730.101 z"/>
<path transform="translate(0,0)" fill="rgb(217,54,94)" d="M 885.363 1205.97 C 893.583 1198.98 899.898 1195.09 911.312 1195.66 C 918.408 1196.01 927.538 1202.72 927.888 1210.05 C 929.008 1213.77 927.986 1212.4 930.475 1214.71 C 937.536 1211.97 943.579 1209.25 950.989 1212.74 C 954.775 1214.48 957.683 1217.7 959.037 1221.64 C 962.05 1230.3 955.632 1239.84 948.584 1244.24 L 945.78 1249.83 C 950.017 1255.03 962.914 1259.86 969.41 1268.26 C 990.404 1295.39 977.322 1367.87 932.748 1358.09 C 919.009 1355.08 910.454 1348.8 902.593 1336.94 C 895.512 1353.8 888.554 1369.71 867.587 1372.73 C 834.802 1377.45 800.311 1348.04 794.76 1316.43 C 793.652 1310.11 793.626 1295.2 801.52 1293.9 C 815.387 1299.73 823.222 1329.33 836.39 1338.94 C 850.608 1349.31 864.148 1342.94 874.087 1330.28 L 874.973 1329.14 C 874.971 1328.86 874.968 1328.57 874.965 1328.29 L 874.916 1326.87 C 874.298 1306 865.349 1303.87 848.045 1310.07 C 840.404 1305.09 834.264 1300.16 833.975 1290.4 C 833.31 1267.94 858.716 1281.3 868.758 1269.72 C 871.12 1266.99 871.289 1265.32 870.889 1262.02 C 868.648 1258.85 868.836 1258.91 865.493 1257.05 C 854.075 1256.05 840.355 1264.2 830.117 1269.33 C 825.021 1267.08 819.197 1262.45 814.572 1259.07 C 813.864 1255.13 812.388 1249.92 811.389 1245.93 C 829.417 1228.99 850.742 1229.01 873.44 1228.41 C 871.588 1221.2 866.712 1211.88 871.461 1205.47 C 874.808 1204.4 874.728 1204.61 878.243 1205.6 L 885.363 1205.97 z M 910.345 1253.43 C 904.332 1251.82 896.285 1248.27 890.329 1245.85 C 891.372 1252.27 892.197 1255.49 891.297 1261.97 C 890.804 1265.52 889.425 1273.39 890.52 1276.41 C 895.584 1275.66 905.589 1262.88 909.835 1258.39 L 910.345 1253.43 z M 912.912 1308.49 L 924.637 1326.57 C 936.552 1323.48 943.591 1320.83 950.209 1309.28 C 956.427 1298.42 960.481 1278.75 945.218 1273.54 C 931.888 1287.96 929.107 1294.89 912.912 1308.49 z"/>
<path transform="translate(0,0)" fill="rgb(232,228,229)" d="M 878.243 1205.6 L 885.363 1205.97 C 890.974 1211.08 900.66 1219.13 903.144 1226.03 L 901.817 1226.41 C 892.124 1222.28 885.499 1213.28 878.243 1205.6 z"/>
<path transform="translate(0,0)" fill="rgb(226,153,163)" d="M 910.345 1253.43 C 931.848 1250.07 928.677 1250.34 948.584 1244.24 L 945.78 1249.83 L 945.748 1251.47 C 939.05 1252.47 913.818 1255.29 909.835 1258.39 L 910.345 1253.43 z"/>
<path transform="translate(0,0)" fill="rgb(232,228,229)" d="M 927.888 1210.05 C 929.008 1213.77 927.986 1212.4 930.475 1214.71 L 930.934 1215.06 L 930.464 1216.26 C 924.481 1221.32 919.266 1226.43 911.413 1227.91 L 910.778 1226.86 C 913.707 1221.48 922.904 1214.25 927.888 1210.05 z"/>
<path transform="translate(0,0)" fill="rgb(177,51,58)" d="M 159.521 867.049 C 167.302 869.665 169.076 881.92 171.001 889.163 C 161.283 892.833 129.874 901.787 126.244 909.178 L 127.506 911.269 C 134.64 915.809 160.563 921.085 170.192 923.363 C 170.225 928.783 170.496 934.509 170.667 939.954 C 163.921 943.737 130.225 958.202 130.349 964.277 C 134.993 968.347 167.185 971.982 175.86 973.287 C 176.321 982.751 176.627 992.221 176.78 1001.69 C 162.336 1000.06 147.781 997.101 133.464 994.433 C 116.62 991.213 80.4249 982.822 65.0611 981.684 C 64.5407 974.984 64.1348 968.276 63.8435 961.562 C 73.4661 954.986 99.6184 949.02 102.735 938.782 L 101.388 936.27 C 94.4343 930.86 70.4799 924.781 61.2079 922.693 L 60.9314 903.816 C 87.943 891.377 130.173 878.178 159.521 867.049 z"/>
<path transform="translate(0,0)" fill="rgb(177,51,58)" d="M 1270.87 1487.28 C 1282.76 1486.28 1291.84 1486.38 1302.39 1492.76 C 1326.55 1507.36 1337.46 1542.77 1322.3 1567.4 C 1312.84 1582.77 1299.31 1587.63 1282.69 1591.54 C 1239.12 1589.26 1207.69 1550.39 1230.65 1507.81 C 1237.86 1494.43 1256.8 1489.86 1270.87 1487.28 z M 1254.01 1527.1 C 1255.21 1542.29 1262.01 1567.13 1280.9 1567.17 C 1290.46 1563.43 1292.24 1560.9 1298.94 1553.16 C 1299.51 1535.41 1293.67 1510.3 1272.43 1507.88 C 1261.91 1512.58 1259.18 1517.11 1254.01 1527.1 z"/>
<path transform="translate(0,0)" fill="rgb(177,51,58)" d="M 1602.13 1101.34 C 1618.01 1099.61 1628.19 1102.76 1642.12 1110.33 C 1668.12 1124.45 1671.81 1153.65 1657.89 1177.87 C 1649.49 1192.48 1634.49 1197.39 1619.09 1201.41 C 1597.74 1200.22 1559.11 1183.02 1555.58 1158.88 C 1550.07 1121.26 1568.32 1108.17 1602.13 1101.34 z M 1619.74 1173.42 C 1653.25 1163.31 1633.89 1125.04 1602.43 1126.16 C 1566.69 1136.86 1589.11 1173.04 1619.74 1173.42 z"/>
<path transform="translate(0,0)" fill="rgb(177,51,58)" d="M 361.328 1374.03 C 382.487 1373.58 408.194 1401.09 414.105 1420.28 C 416.66 1428.57 411.472 1435.12 407.534 1441.98 C 400.704 1445.94 392.14 1449.54 384.846 1452.83 C 386.111 1473.38 382.53 1492.65 356.214 1487.73 C 348.805 1485.86 338.125 1481.53 331.377 1478.02 C 315.326 1469.67 306.749 1465.07 300.792 1447.76 C 312.802 1425.63 340.067 1387.52 361.328 1374.03 z M 354.514 1466.17 C 371.336 1456.33 353.366 1437.38 345.735 1435.54 C 340.051 1441.64 338.665 1444.12 335.426 1452.2 C 341.357 1457.76 346.732 1463.76 354.514 1466.17 z M 375.991 1432.44 C 382.029 1427.76 387.292 1422.65 381.915 1413.51 C 380.51 1411.13 374.854 1407.14 371.964 1406.49 C 359.384 1418.59 361.82 1422.56 375.991 1432.44 z"/>
<path transform="translate(0,0)" fill="rgb(177,51,58)" d="M 1677.92 720.251 C 1712.62 719.098 1718.76 770.382 1709.94 795.442 C 1693 806.409 1655.72 806.927 1634.14 811.199 C 1627.77 811.662 1610.22 812.09 1608.6 804.316 C 1604.81 786.063 1596.79 741.204 1621.19 733.469 C 1630.17 730.622 1639.74 735.747 1647.36 739.951 C 1658.38 727.636 1661.27 723.226 1677.92 720.251 z M 1668.97 755.638 C 1669.01 762.817 1668.9 770.701 1669.26 777.815 L 1681.93 777.769 C 1691.88 771.185 1684.19 750.055 1675.83 747.393 L 1668.97 755.638 z M 1630.13 767.315 C 1630.14 771.879 1629.55 777.107 1631.63 780.884 C 1635.07 783.881 1637.69 783.59 1642.41 783.696 C 1653.1 775.661 1644.68 762.858 1635.2 758.326 L 1630.13 767.315 z"/>
<path transform="translate(0,0)" fill="rgb(177,51,58)" d="M 507.829 1481.51 C 539.592 1486.96 527.825 1522.46 536.962 1539.79 L 538.429 1540.22 C 545.381 1532.44 552.096 1512.16 563.062 1510.96 C 573.311 1510.34 585.302 1516.25 578.599 1528.13 C 568.304 1546.38 559.154 1565.32 549.725 1584.04 C 545.521 1592.39 541.423 1601.29 535.355 1608.45 C 533.313 1610.86 531.842 1610.34 529.082 1610.19 C 522.61 1607.65 518.891 1605.01 513.749 1600.57 C 511.809 1592.58 508.455 1547.85 505.377 1545.82 C 493.508 1554.82 494.552 1575.07 479.976 1581.38 C 474.387 1583.8 462.322 1578.13 460.052 1572.41 C 461.078 1554.77 495.999 1498.58 507.829 1481.51 z"/>
<path transform="translate(0,0)" fill="rgb(177,51,58)" d="M 231.864 1188.9 C 248.56 1188.89 257.019 1214.6 260.06 1227.75 C 263.372 1242.07 262.205 1259.56 248.025 1267.71 C 234.847 1275.29 221.725 1270.96 208.481 1267.12 C 202.289 1276.92 200.179 1286.96 194.373 1296.7 C 185.019 1312.4 170.352 1293.67 168.655 1282.53 C 172.054 1269.78 184.577 1258.6 187.776 1246.28 C 188.119 1244.96 187.38 1244.79 186.191 1243.65 C 177.504 1242.69 161.718 1250.69 152.974 1254.46 C 140.33 1239.73 140.828 1235.15 157.806 1224.78 C 180.722 1210.77 207.405 1199.76 231.864 1188.9 z M 224.559 1250.23 C 229.831 1247.88 230.492 1246.42 234.205 1242.18 C 234.005 1231.48 234.219 1224.21 222.284 1220.7 C 205.586 1232.26 212.879 1238.67 224.559 1250.23 z"/>
<path transform="translate(0,0)" fill="rgb(177,51,58)" d="M 195.911 1102.35 C 217.264 1105.24 221.942 1146.86 216.12 1163.22 C 206.033 1191.55 184.187 1185.96 162.323 1178.56 C 158.194 1186.52 154.562 1194.36 148.768 1201.28 C 136.007 1216.51 121.674 1203.12 121.088 1186.94 C 126.886 1174.77 133.789 1168.31 141.933 1157.95 C 144.225 1155.03 146.792 1152.23 146.36 1148.67 C 133.174 1146.34 113.451 1166.94 106.242 1148.27 C 104.197 1143.33 106.28 1133.02 112.166 1131.46 C 138.471 1124.5 169.998 1108.04 195.911 1102.35 z M 167.893 1141.78 C 171.862 1148.15 175.892 1155.24 180.975 1160.69 C 197.188 1158.9 195.605 1136.75 187.454 1131.06 C 186.143 1131.02 184.314 1130.89 183.056 1130.99 C 176.888 1134.79 173.076 1136.77 167.893 1141.78 z"/>
<path transform="translate(0,0)" fill="rgb(177,51,58)" d="M 1602.26 986.25 C 1630.64 986.323 1656.5 997.622 1684.04 1002.79 C 1689.63 1003.84 1695.42 1004.55 1701.06 1005.46 C 1701.17 1011.23 1700.9 1017.09 1700.72 1022.86 C 1684.52 1041.5 1663.97 1036.01 1644.99 1056.48 C 1655.12 1060.44 1678.29 1064.3 1690.1 1066.73 C 1690.75 1074.67 1692.58 1083.09 1688.6 1089.66 C 1685.92 1091.84 1685.43 1091.65 1681.79 1091.89 L 1674.97 1090.51 C 1663.1 1088.04 1588 1071.34 1584.27 1065.66 C 1583.91 1059.55 1589.23 1047.94 1594.32 1044.8 C 1609.6 1035.39 1630.64 1032.25 1645.71 1022.83 L 1646.77 1022.15 C 1632.93 1016.74 1614.98 1011.93 1600.01 1011.3 C 1599.35 1000.34 1600.12 997.034 1602.26 986.25 z"/>
<path transform="translate(0,0)" fill="rgb(177,51,58)" d="M 1443.89 1326.19 C 1467.61 1324.34 1531.07 1353.93 1552.23 1366.85 C 1547.09 1376.34 1544.34 1381.41 1534.52 1386.27 C 1528.75 1381.29 1525.31 1378.79 1518.95 1374.53 C 1513.47 1381.55 1508.12 1388.75 1501.84 1395.05 C 1500.18 1396.63 1498 1398.01 1497.96 1400.54 C 1497.89 1404.82 1503.99 1413.82 1503.1 1423.97 C 1502.74 1428.05 1501.65 1432.91 1498.23 1435.56 C 1495.62 1437.58 1490.07 1439.15 1486.89 1438.11 C 1481.69 1436.42 1476.5 1428.29 1473.61 1423.86 C 1464.58 1410.02 1430.63 1347.33 1434.25 1334.29 C 1435.22 1330.82 1440.9 1327.96 1443.89 1326.19 z M 1489.03 1368.83 C 1491.07 1365.75 1490.72 1367.36 1490.43 1363.92 C 1486.92 1359.5 1479.82 1359.04 1474.45 1358.84 C 1475.4 1365.6 1475.55 1371.29 1482.98 1372.33 C 1485.53 1371.02 1486.67 1370.41 1489.03 1368.83 z"/>
<path transform="translate(0,0)" fill="rgb(177,51,58)" d="M 621.082 1538.28 C 631.016 1537.77 639.369 1537.82 648.627 1542.54 C 656.052 1546.32 669.199 1559.35 671.15 1566.81 C 669.885 1570.16 670.206 1569.16 667.403 1571.5 C 647.734 1587.89 632.882 1549.45 614.824 1566.56 C 600.223 1580.39 595.917 1603.93 610.63 1619.62 C 612.983 1622.13 615.682 1622.07 618.826 1622.21 C 626.22 1622.54 628.848 1618.08 633.448 1612.99 C 627.501 1606.41 616.852 1602.45 615.652 1594.46 C 617.614 1586.41 624.546 1585.84 631.234 1586.12 C 662.581 1593.71 666.508 1604.37 651.009 1632.71 C 641.677 1649.78 613.547 1645.52 599.437 1638.44 C 594.618 1636.02 589.084 1634.16 584.547 1631.28 C 562.032 1616.97 569.241 1578.68 581.306 1559.72 C 590.044 1545.97 606.153 1541.29 621.082 1538.28 z"/>
<path transform="translate(0,0)" fill="rgb(177,51,58)" d="M 715.272 1567.1 C 737.345 1566.29 743.394 1566.62 747.997 1591.02 C 753.024 1617.67 759.565 1648.05 758.84 1675.19 C 758.602 1684.1 736.655 1677.51 731.487 1676.17 C 730.918 1669.2 731.116 1661.97 731.174 1654.96 L 717.5 1651.22 C 711.247 1649.95 705.498 1649.36 699.16 1648.63 C 696.36 1653.17 690.272 1663.08 685.814 1665.26 C 679.866 1668.17 667.397 1666.92 663.815 1660.28 C 663.016 1646.94 706.132 1580.05 715.272 1567.1 z M 716.375 1630.73 C 721.262 1630.89 720.624 1631.66 723.811 1629.42 C 725.569 1624.09 725.368 1613.94 721.533 1609.82 C 715.94 1615.22 706.877 1624.5 716.375 1630.73 z"/>
<path transform="translate(0,0)" fill="rgb(177,51,58)" d="M 1672.75 603.729 C 1675.21 603.823 1679.03 604.875 1680.25 607.131 C 1691.27 627.523 1674.95 634.755 1662.93 643.891 C 1669.45 655.277 1671.2 663.296 1673.48 676.059 C 1696.12 674.343 1698.7 680.658 1698.34 701.81 C 1677.64 703.014 1656.52 697.992 1636.06 694.626 C 1622.61 691.923 1603.26 690.139 1589.68 689.96 C 1586.26 682.505 1584.23 674.115 1581.37 666.184 C 1597.32 649.51 1651.44 616.333 1672.75 603.729 z M 1639.44 672.627 C 1647.4 668.912 1646.23 659.459 1638.14 657.509 C 1634.95 660.693 1633.76 661.358 1632.53 665.488 C 1633.51 670.288 1635.06 670.813 1639.44 672.627 z"/>
<path transform="translate(0,0)" fill="rgb(177,51,58)" d="M 73.8502 1016.09 C 96.6002 1017.23 149.252 1020.13 170.237 1026.34 C 223.12 1041.97 161.915 1071.43 144.524 1084.82 C 135.023 1092.62 123.001 1100.4 112.331 1106.53 C 108.595 1108.67 103.83 1110.81 99.4582 1109.8 C 92.3153 1108.16 87.5234 1101.33 90.1601 1094.09 C 93.5627 1085.32 101.959 1082.6 109.798 1079.03 C 105.802 1065.71 104.171 1058.87 102.984 1045.06 C 75.6264 1042.61 73.8398 1044.5 73.8502 1016.09 z M 142.238 1056.77 C 145.71 1054.16 146.181 1054.78 146.922 1051.57 C 142.928 1047.02 132.935 1047.43 127.214 1047.99 C 127.571 1052.22 127.541 1056.25 129.294 1060.03 C 134.038 1063.08 137.591 1059.46 142.238 1056.77 z"/>
<path transform="translate(0,0)" fill="rgb(177,51,58)" d="M 988.996 1576.38 C 1001.47 1575.84 1006.06 1574.61 1013.77 1585.76 C 1024.22 1600.9 1059.82 1656.88 1056.09 1673.47 C 1051.74 1679.14 1043.79 1679.97 1036.63 1681.71 C 1027.91 1672.14 1027.75 1662.57 1023.99 1659.8 C 1013.88 1660.97 996.867 1662.43 991.5 1671.76 C 982.561 1687.31 981.662 1688.63 963.117 1688.91 C 967.153 1659.18 976.744 1608.73 984.783 1578.92 C 985.264 1577.14 986.862 1577.11 988.996 1576.38 z M 1007.82 1640.99 C 1014.76 1636.81 1010.42 1630.61 1007.53 1624.67 C 1006.66 1622.89 1005.25 1622.05 1003.47 1621.31 C 1000.35 1625.76 997.358 1629.67 997.671 1635.18 C 1000.49 1640.6 1001.78 1639.98 1007.82 1640.99 z"/>
<path transform="translate(0,0)" fill="rgb(177,51,58)" d="M 65.3493 767.756 C 66.9863 767.764 68.6226 767.824 70.2558 767.935 C 91.1233 769.496 145.592 798.238 164.824 810.917 C 167.76 812.853 171.475 816.991 173.858 819.734 C 173.039 826.096 170.767 829.765 167.557 835.022 C 153.908 841.912 141.829 845.099 127.244 849.367 C 109.437 854.498 75.931 861.15 61.4066 866.759 C 60.131 841.412 58.9979 843.499 84.1252 834.817 C 83.5232 818.65 84.0804 812.397 86.9291 796.694 C 65.881 790.125 62.5306 790.182 65.3493 767.756 z M 110.029 829.132 L 125.461 823.844 L 127.997 821.353 C 127.848 814.865 115.614 811.978 110.09 810.667 C 109.988 816.724 109.771 823.109 110.029 829.132 z"/>
<path transform="translate(0,0)" fill="rgb(177,51,58)" d="M 297.321 1290.34 C 304.188 1290.86 306.341 1293.45 311.177 1298.04 C 307.43 1313.38 266.271 1394.32 253.62 1397.01 C 249.644 1396.51 241.591 1390.61 238.892 1387.46 C 230.943 1378.19 244.617 1369.57 243.872 1359.55 C 238.612 1351.74 233.493 1343.19 228.504 1335.17 C 221.011 1337.23 214.284 1340.88 205.733 1343.19 C 203.04 1340.83 187.066 1325.94 192.3 1323.36 C 216.036 1311.66 272.546 1292.68 297.321 1290.34 z M 259.018 1336.35 C 264.398 1338.26 274.454 1326.27 271.514 1319.75 L 269.884 1319.08 C 264.202 1320.57 257.513 1321.56 253.784 1325.82 C 252.749 1331.46 255.21 1332.45 259.018 1336.35 z"/>
<path transform="translate(0,0)" fill="rgb(177,51,58)" d="M 432.65 1437.83 C 449.522 1437.45 477.025 1456.89 490.415 1467.63 C 499.227 1474.7 489.371 1484.34 484.057 1489.26 C 473.552 1486.09 456.262 1472.78 446.318 1465.84 C 442.102 1471.53 440.192 1474.49 436.733 1480.67 C 445.106 1486.38 470.23 1497.79 464.869 1509.36 C 463.044 1513.33 459.7 1516.4 455.59 1517.88 C 449.591 1518.06 434.987 1506.71 426.87 1502.94 L 425.473 1502.3 C 421.754 1505.01 419.695 1506.87 418.88 1511.37 C 420.691 1521.61 441.501 1532.52 451.717 1541.38 C 445.693 1554.06 440.317 1559.3 427.418 1550.7 C 413.534 1541.44 391.816 1530.85 380.852 1518.49 C 390.002 1497.47 416.3 1452.61 432.65 1437.83 z"/>
<path transform="translate(0,0)" fill="rgb(177,51,58)" d="M 1180.54 1529.21 C 1192.63 1527.67 1204.69 1529.34 1202.11 1544.73 C 1200.01 1557.25 1184.67 1547.79 1173.51 1555.56 C 1171.49 1559.3 1171.98 1557.72 1172.21 1562.22 C 1178.42 1570.04 1216.47 1565.73 1226.16 1583.21 C 1242.73 1613.14 1204.18 1641.95 1177.79 1636.16 C 1157.94 1630.44 1152.27 1622.83 1169.59 1608.69 C 1177.12 1608.25 1198.28 1610.05 1202.19 1602.72 C 1201.45 1600.9 1200.48 1598.79 1198.33 1598.17 C 1172.38 1590.69 1118.31 1588.63 1143.53 1546.49 C 1150.66 1534.58 1167.89 1531.85 1180.54 1529.21 z"/>
<path transform="translate(0,0)" fill="rgb(177,51,58)" d="M 1094.66 1557.28 C 1103.92 1556.55 1123.97 1558.99 1124.12 1570.87 C 1117.44 1582.41 1090.89 1578.2 1085.45 1588.24 C 1087.87 1604.11 1126.73 1595.12 1138.22 1609.88 C 1147.3 1621.54 1144.95 1641.25 1134.93 1651.84 C 1128.08 1659.08 1106.98 1664.93 1096.63 1664.81 C 1087.8 1662.74 1071.32 1656.71 1070.76 1646.23 C 1071.86 1642.56 1073.98 1641.29 1076.9 1638.72 C 1086.88 1638.13 1113.04 1643.25 1116.95 1632.48 C 1112.25 1620.95 1056.11 1621.31 1053.83 1595.69 C 1051.28 1567.06 1072.44 1561.69 1094.66 1557.28 z"/>
<path transform="translate(0,0)" fill="rgb(177,51,58)" d="M 1371.38 1419.34 C 1374.2 1418.76 1375.71 1418.91 1378.58 1418.87 C 1380.6 1419.91 1381.55 1419.95 1382.05 1422.57 C 1386.8 1447.54 1342.52 1443.49 1349.85 1470.37 C 1351.61 1477.58 1367.13 1497.37 1373.63 1499.78 C 1389.07 1505.5 1399.46 1463.74 1419.48 1475.19 C 1429.53 1480.93 1419.24 1499.03 1414.65 1506.54 C 1407.85 1516 1394.67 1521.35 1383.56 1523.48 C 1368.11 1526.22 1353.44 1520.09 1340.94 1511.42 C 1317.95 1495.48 1311.45 1462.35 1328.2 1439.59 C 1338.36 1425.77 1355.05 1421.72 1371.38 1419.34 z"/>
<path transform="translate(0,0)" fill="rgb(177,51,58)" d="M 1512.43 1235.06 C 1516.97 1234.97 1522.95 1235.41 1527.08 1237.4 C 1529.02 1238.32 1530.5 1240 1531.16 1242.04 C 1533.04 1247.99 1525.81 1259.62 1522.93 1265.86 C 1538.06 1277.7 1576.61 1302.35 1587.94 1315.29 C 1583.34 1325.17 1581.57 1327.78 1573.52 1335.09 C 1567.49 1330.29 1559.85 1325.09 1553.5 1320.53 C 1537.41 1309.27 1526.1 1298.88 1508.23 1289.93 C 1499.64 1303.76 1492.49 1315.45 1475.65 1301.97 C 1471.68 1298.92 1475.59 1290.57 1477.57 1287.06 C 1487.86 1268.8 1496.66 1249.22 1512.43 1235.06 z"/>
<path transform="translate(0,0)" fill="rgb(177,51,58)" d="M 789.013 1578.11 C 793.688 1577.98 809.957 1576.87 811.706 1582.23 C 819.134 1605.04 811.788 1641.47 809.737 1664.9 C 812.534 1664.46 815.339 1664.07 818.151 1663.73 C 827.589 1662.66 841.33 1663.35 849.182 1669.41 C 855.353 1674.18 850.852 1684.52 846.208 1688.93 C 834.395 1692.16 791.718 1685.34 779.488 1680.7 C 778.072 1662.96 785.468 1596.2 789.013 1578.11 z"/>
<path transform="translate(0,0)" fill="rgb(177,51,58)" d="M 89.1696 688.067 C 99.5277 688.095 180.566 706.096 184.314 709.085 C 186.096 713.349 185.436 715.202 184.973 719.703 C 182.523 743.497 155.113 729.585 140.223 725.773 L 103.597 717.306 L 102.642 722.243 C 100.831 731.48 98.7969 745.941 90.3942 751.56 C 85.71 754.693 77.3238 752.434 74.6395 747.334 C 72.8731 735.014 83.0478 698.7 89.1696 688.067 z"/>
<path transform="translate(0,0)" fill="rgb(177,51,58)" d="M 1612.88 874.832 C 1632.29 877.977 1641.4 901.355 1665.22 901.583 C 1671.38 901.861 1684.02 903.217 1689.88 901.253 C 1704.13 896.473 1715.37 883.376 1731.88 884.864 C 1739.74 885.572 1740.88 891.407 1740.08 898.389 C 1739.49 903.545 1735.39 906.363 1731.61 909.383 C 1712.52 918.879 1685.92 931.887 1664.84 927.061 C 1650.66 923.817 1602.32 908.572 1602.47 888.958 C 1602.51 884.399 1608.85 877.129 1612.88 874.832 z"/>
<path transform="translate(0,0)" fill="rgb(177,51,58)" d="M 1646.8 556.456 C 1659.03 556.891 1684.69 560.732 1687.47 574.273 C 1691.72 594.954 1661.1 582.689 1655.26 581.743 C 1648.02 580.558 1640.62 580.616 1633.4 581.913 C 1615.85 585.129 1601.32 595.75 1591.2 610.183 C 1580.65 620.022 1568.23 632.082 1556.25 609.555 C 1554.56 606.378 1565.41 593.726 1568.36 590.34 C 1587.83 568.016 1618.2 559.035 1646.8 556.456 z"/>
<path transform="translate(0,0)" fill="rgb(177,51,58)" d="M 110.62 607.946 C 134.581 609.522 188.322 624.455 207.012 639.467 C 205.555 647.389 204.275 651.24 201.635 658.937 C 189.805 654.914 176.828 651.411 164.743 647.932 C 151.356 644.07 140.073 638.873 125.647 635.327 C 122.54 645.797 121.376 671.967 106.124 670.165 C 102.631 669.752 96.0011 666.31 92.5856 664.668 C 99.4284 644.409 101.359 628.112 110.62 607.946 z"/>
<path transform="translate(0,0)" fill="rgb(177,51,58)" d="M 890.296 1583.5 L 893.995 1583.83 C 900.613 1590.57 901.277 1682.31 894.032 1691.17 C 888.86 1692.63 880.77 1692.13 875.109 1692.07 C 872.189 1692.12 872.148 1692.18 869.343 1691.47 C 862.642 1674.85 866.488 1603.77 870.396 1584.06 C 876.807 1583.71 883.827 1583.67 890.296 1583.5 z"/>
<path transform="translate(0,0)" fill="rgb(177,51,58)" d="M 1630.13 828.541 C 1643.53 825.301 1676.03 827.095 1690.25 828.219 C 1708.77 829.192 1719.07 829.545 1717.63 852.22 C 1717.36 856.446 1707.31 858.496 1704.05 858.637 C 1673.96 859.935 1642.85 861.344 1612.88 858.424 C 1606.5 857.803 1606.81 842.38 1608.17 837.923 C 1610.89 832.453 1624.34 830.003 1630.13 828.541 z"/>
<path transform="translate(0,0)" fill="rgb(217,54,94)" d="M 1630.13 828.541 C 1643.53 825.301 1676.03 827.095 1690.25 828.219 C 1683.95 830.632 1634.99 831.382 1630.13 828.541 z"/>
<path transform="translate(0,0)" fill="rgb(177,51,58)" d="M 1396.38 1380.03 C 1416.09 1381.02 1441.49 1418.84 1453.58 1434.03 C 1458.24 1439.89 1465.77 1450.83 1464.76 1458.42 C 1464.02 1463.87 1458.79 1466.96 1454.68 1470.05 C 1436.33 1470.33 1389.08 1410.88 1385.81 1392.88 C 1385.08 1388.86 1393.56 1382.46 1396.38 1380.03 z"/>
<path transform="translate(0,0)" fill="rgb(177,51,58)" d="M 126.478 553.894 C 153.021 553.77 202.155 576.282 225.323 589.885 C 224.053 599.644 223.625 602.12 218.079 610.361 C 207.978 611.568 126.339 576.839 122.075 568.712 C 121.062 562.458 123.389 559.194 126.478 553.894 z"/>
<path transform="translate(0,0)" fill="rgb(177,51,58)" d="M 1533.59 1196.29 C 1551.53 1197.91 1603.37 1230.12 1619.9 1241.13 C 1625.13 1244.62 1618.73 1260.84 1613.84 1265.31 C 1597.58 1256.01 1532.89 1221.88 1523.78 1212.29 C 1525.85 1206.56 1528.06 1198.98 1533.59 1196.29 z"/>
<path transform="translate(0,0)" fill="rgb(230,135,62)" d="M 1356.17 1855.45 L 1358.62 1857.34 C 1367.76 1874.87 1324.45 1951.75 1340.03 1968.19 C 1344.31 1966.98 1349.22 1957.72 1351.36 1954.12 C 1365.43 1930.41 1379.99 1911.53 1410.64 1915.66 C 1425.77 1917.7 1408.08 1945.68 1408.21 1953.46 C 1408.3 1959 1406.58 1967.51 1413.88 1967.68 C 1423.54 1962.51 1424.39 1952.36 1430.14 1946.45 C 1440.77 1935.54 1432.95 1906.52 1445.37 1900.42 L 1447.52 1901.27 C 1452.1 1906.96 1452.15 1908.56 1454.07 1915.58 C 1457.33 1917.35 1460.19 1918.98 1463.19 1921.2 C 1475.35 1930.16 1451.21 1962.88 1460.59 1971.07 C 1465.82 1970.64 1470.23 1966.2 1472.57 1961.68 C 1483.62 1940.41 1496.32 1916.13 1522.97 1913.07 C 1554.77 1909.41 1522.4 1959.98 1535.03 1970.82 C 1556.6 1973.51 1550.61 1914.94 1573.35 1916.24 C 1576.26 1916.4 1581.57 1919.49 1584.25 1920.92 C 1598.4 1913.21 1603.3 1910.1 1616.08 1921.44 C 1624.77 1919.2 1627.94 1914.2 1635.92 1912.35 C 1653.18 1916.51 1635.29 1953.54 1642.87 1962 C 1648.06 1961.78 1655.91 1950.87 1661.34 1946.33 L 1662.35 1945.5 C 1658.7 1959.44 1649.68 1972.25 1639.07 1981.83 L 1628.02 1984.36 C 1623.82 1969.49 1624.53 1961.32 1627 1946.29 C 1627.93 1940.65 1629.54 1932.22 1624.51 1928.44 C 1606.72 1929.86 1604.74 1968.22 1592.75 1979.05 L 1591.11 1978.83 C 1584.4 1964.75 1602.86 1928.35 1589.78 1926.99 C 1573.41 1934.25 1568.66 1965.17 1558.26 1980.49 L 1557.52 1981.57 C 1554.69 1978.24 1551.51 1974.03 1548.75 1970.55 C 1545.06 1973.88 1539.84 1977.82 1535.86 1981.01 C 1525.5 1981.74 1525.95 1978.92 1516.63 1978.31 C 1508.96 1978.06 1501.4 1981.62 1494.08 1982.52 C 1487.36 1983.35 1478.82 1974.1 1474.02 1969.76 C 1469.31 1974.98 1464.92 1979.1 1459.79 1983.94 C 1455.95 1984.22 1453.24 1984.82 1449.71 1983.39 C 1438.66 1973.03 1456.67 1941.31 1446.62 1935.31 C 1436.76 1937.33 1420.57 1972.05 1409.76 1981.69 C 1401.44 1980.02 1396.78 1978.17 1387.65 1977.29 C 1378.52 1981.34 1375.02 1983.55 1365.03 1984.93 L 1347.42 1974.23 C 1341.85 1978.48 1338.14 1981.27 1332.16 1984.84 C 1327.41 1982.83 1323.21 1980.22 1318.76 1977.61 L 1293.95 1984.69 C 1287.85 1980.97 1283.63 1978 1277.87 1973.73 C 1269.36 1976.21 1258.71 1984.85 1251.68 1983.89 C 1244.99 1974.75 1262.15 1935.66 1250.26 1926.5 C 1236.16 1926.14 1230.76 1955.64 1226.54 1965.64 C 1223.81 1972.1 1221.02 1977.23 1217.5 1983.36 C 1213.77 1980.35 1210.74 1977.21 1207.35 1973.85 C 1193.34 1985.15 1188.87 1988.41 1174.02 1975.8 C 1167.15 1979.48 1162.18 1981.97 1155.03 1985.02 C 1143.06 1981 1141.86 1977.49 1142.17 1964.49 C 1142.4 1954.66 1148.4 1919.38 1162.05 1922.26 C 1172.46 1933.76 1149.58 1965.49 1163.87 1971.34 C 1177.6 1969.23 1181.57 1936.58 1192.36 1922.44 C 1195.64 1921.3 1194.09 1921.23 1197.17 1922.46 C 1202.42 1932.51 1189.01 1958.4 1197.18 1967.16 C 1214.07 1969.44 1217.9 1924.32 1229.34 1917.38 C 1234.3 1917.53 1239.48 1920.12 1244.24 1922.03 C 1246.67 1920.57 1253.66 1916.26 1255.56 1915.74 C 1288.26 1906.9 1260.07 1954.49 1263.5 1966.43 C 1263.87 1967.74 1265.17 1967.75 1266.31 1968.14 C 1278.39 1961.79 1290.63 1929.38 1303.03 1920.9 C 1314.13 1913.31 1325.85 1919.11 1333.46 1906.61 C 1343.16 1890.7 1341.36 1868.23 1355.17 1856.31 L 1356.17 1855.45 z M 1307.8 1963.15 C 1312.75 1957.37 1325.8 1936.44 1319.07 1929.72 C 1313.18 1935.79 1299.63 1956 1307.8 1963.15 z M 1379.03 1961.55 C 1385.22 1956.39 1393.17 1939.92 1392.42 1931.65 L 1390.59 1929.57 C 1384.19 1936.74 1370.95 1952.17 1379.03 1961.55 z M 1506.85 1958.71 C 1511.63 1952.16 1520.84 1939.68 1516.27 1931.58 L 1513.19 1930.43 C 1508.23 1937.9 1502.77 1947.32 1502.9 1956.56 L 1504.06 1958.77 C 1505.2 1958.83 1505.84 1959 1506.85 1958.71 z"/>
<path transform="translate(0,0)" fill="rgb(230,135,62)" d="M 721.639 1849 C 747.821 1851.09 721.853 1886.59 715.967 1896.16 C 712.468 1901.85 709.599 1907.31 706.942 1913.45 C 712.741 1913.79 721.937 1913.83 726.909 1916.39 C 734.16 1928.05 717.201 1962.37 727.511 1967.99 C 746.53 1963.63 741.606 1916.45 761.233 1920.54 C 769.24 1928 748.598 1957.13 762.035 1964.59 C 768.873 1964.38 771.178 1961.27 776.251 1956.67 C 778.651 1948.33 785.945 1918.46 794.271 1916.14 L 796.095 1917.36 C 802.881 1930.6 794.112 1948.2 793.994 1964.33 L 793.989 1965.91 L 800.58 1972.08 C 807.738 1965.68 809.179 1962.77 812.172 1953.84 C 814.959 1945.51 817.821 1915.25 826.925 1912.67 C 831.432 1916.7 830.5 1934.46 833.145 1942.92 L 834.568 1943.45 C 844.774 1939.88 850.783 1924.18 862.272 1919.28 C 877.022 1912.98 890.401 1906.54 898.845 1924.81 C 895.71 1932.59 880.837 1970.06 895.442 1970.53 C 908.254 1963.77 914.162 1930.8 925.858 1919.41 C 931.404 1917.42 938.782 1919.73 944.549 1921.11 L 957.528 1913.86 C 967.089 1915.84 969.13 1916.24 976.387 1922.77 C 985.719 1916.95 987.915 1916.79 998.809 1915.16 C 1000.66 1918.27 1002.49 1922.73 1004 1926.12 C 1002.97 1929.06 1002 1932.02 1001.09 1935 C 999.01 1942.02 996.099 1958.66 999.653 1965.23 C 1006.47 1968.64 1006.09 1960.55 1013.9 1959.08 C 1008.85 1970.24 998.158 1986.67 983.858 1983.46 C 970.209 1971.31 999.781 1932.02 984.891 1925.96 C 958.736 1938.18 973.087 1960.91 950.455 1979.24 L 947.52 1978.82 C 942.204 1964.09 960.265 1931.92 949.369 1926.92 C 936.597 1929.57 926.597 1968.17 916.272 1982.04 L 915.421 1983.18 C 911.975 1979.33 908.585 1975.43 905.252 1971.48 C 889.936 1986.69 887.502 1983.33 867.802 1977.35 C 862.007 1980.11 855.328 1984.23 849.022 1982.81 C 840.062 1981.21 841.697 1967.76 836.812 1962.41 C 816.088 1939.68 812.821 1985.77 793.697 1985.07 C 784.435 1981.22 783.249 1974.58 776.519 1967.09 L 775.831 1966.34 C 757.223 1984.6 763.998 1990.3 736.607 1973.67 C 728.787 1978 719.111 1987.8 710.448 1982.25 C 706.373 1971.6 719.352 1928.13 706.313 1928.52 C 695.427 1935.5 691.461 1952.42 686.07 1963.42 C 682.818 1970.05 679.358 1975.68 675.454 1981.93 C 671.339 1948.04 687.163 1862.93 721.639 1849 z M 865.046 1961.43 C 870.667 1954.61 882.197 1936.4 870.398 1930.44 C 866.041 1937.27 854.653 1956.46 865.046 1961.43 z"/>
<path transform="translate(0,0)" fill="rgb(230,135,62)" d="M 171.364 1852.37 C 183.724 1852.26 190.738 1856.71 198.854 1865.46 C 199.418 1870.65 199.461 1875.7 199.602 1880.92 C 196.263 1884.55 193.373 1889.56 188.612 1886.87 C 185.53 1879.33 189.416 1862.99 180.681 1858.88 C 171.094 1854.36 155.775 1864.12 152.773 1873.92 C 144.898 1901.7 173.015 1917.77 178.749 1944.13 C 187.374 1983.77 150.352 2006.48 116.092 1991.99 C 108.064 1988.6 102.325 1985.42 98.7902 1976.63 C 96.2494 1965.71 98.083 1957.75 103.678 1948.29 C 108.238 1940.58 121.569 1928.72 130.642 1935.17 C 136.724 1947.93 94.4359 1960.66 116.185 1980.48 C 125.891 1989.32 131.348 1989.38 143.791 1989.19 C 189.48 1947.76 144.304 1933.47 135.117 1890.7 C 129.91 1866.46 149.466 1855.15 171.364 1852.37 z"/>
<path transform="translate(0,0)" fill="rgb(230,135,62)" d="M 654.052 1853.42 C 659.863 1853.16 662.699 1853.53 668.454 1854.18 C 670.26 1856.05 672.145 1858.15 673.748 1860.18 C 678.748 1866.52 679.892 1885.9 672.903 1890.82 L 670.873 1890.23 C 665.847 1883.89 666.304 1874.22 665.821 1866.03 C 664.542 1864.08 661.606 1859.16 659.369 1858.68 C 648.795 1856.4 636.956 1860.67 633.378 1871.02 C 624.229 1897.5 644.588 1912.39 655.119 1933.77 C 660.046 1943.77 662.054 1954.27 657.929 1965.09 C 653.849 1976.17 644.576 1987.58 633.852 1992.62 C 622.31 1998.06 609.006 1998.39 597.213 1993.51 C 588.17 1989.84 585.105 1984.65 581.518 1976.45 C 577.765 1957.37 582.868 1939.1 603.87 1933.36 C 606.172 1932.73 606.135 1932.91 607.948 1934.07 C 610.238 1941.9 596.317 1955.32 592.805 1962.21 C 591.576 1964.62 590.483 1968.9 589.774 1971.58 C 595.831 1982.16 597.658 1984.59 608.644 1989.46 C 617.621 1988.22 627.958 1985.75 634.959 1979.25 C 660.964 1955.11 624.676 1923.61 617.912 1899 C 614.697 1887.3 615.137 1882.34 616.1 1870.58 C 626.182 1856.37 637.806 1854.56 654.052 1853.42 z"/>
<path transform="translate(0,0)" fill="rgb(230,135,62)" d="M 1117.96 1852.15 C 1127.7 1851.5 1131.39 1852.18 1140.79 1854.63 C 1150.57 1864.46 1154.47 1874.93 1144.21 1886.1 C 1142.81 1887.63 1143.47 1887.27 1141.62 1887.36 C 1135.21 1877.77 1144.76 1864.75 1129.59 1855.29 L 1128.47 1854.6 C 1114.68 1857.31 1112.26 1857.89 1102.58 1867.85 C 1096.02 1902.12 1129.2 1917.35 1130.67 1950.16 C 1131.15 1960.8 1124.87 1977.93 1117.27 1985.29 C 1108.86 1993.42 1093.5 1997.9 1081.87 1997.09 C 1069 1996.18 1065.72 1992.68 1057.8 1983.73 C 1052.68 1974.41 1048.61 1949.83 1058.24 1942.28 C 1062.48 1938.95 1077.25 1930.2 1081.04 1936.27 C 1079.46 1950.71 1045.76 1970.02 1068.04 1984.19 C 1092.23 1999.57 1122.33 1977.32 1115.39 1949.51 C 1111.02 1930.47 1094.2 1920.9 1089.8 1901.46 C 1084.15 1876.46 1091.3 1858.01 1117.96 1852.15 z"/>
<path transform="translate(0,0)" fill="rgb(230,135,62)" d="M 192.706 1980.99 C 190.754 1976.43 188.617 1971.73 188.933 1966.88 C 190.525 1942.45 207.297 1906.71 237.543 1915.19 C 237.721 1915.24 245.011 1914.27 246.327 1914.21 C 258.533 1922.05 234.395 1957.38 247.004 1970.76 C 254.642 1970.32 274.893 1923.53 275.475 1915.26 C 273.664 1910.44 271.069 1906.15 273.925 1901.33 C 278.381 1893.82 286.692 1873.4 297.55 1876.18 C 300.917 1882.32 296.208 1891.14 298.969 1893.22 C 300.427 1894.32 309.128 1900.4 311.221 1901.88 C 298.629 1907.58 288.883 1909.98 283.387 1924.51 C 279.686 1934.3 274.679 1962.62 283.965 1969.7 C 298.264 1967.61 303.846 1927.01 316.261 1922.31 L 318.119 1923.01 C 322.244 1934.67 308.372 1962.72 319.775 1971.29 C 341.632 1973.18 337.389 1906.17 355.302 1920.58 C 357.47 1933.25 347.808 1951.21 351.738 1959.52 C 353.199 1959.93 353.623 1960.49 354.903 1959.45 C 373.453 1944.37 384.333 1907.97 415.086 1914.33 C 438.063 1919.09 408.75 1958.45 423.796 1971.17 C 436.659 1968.18 443.126 1929.53 455.297 1916.73 C 462.402 1918.42 465.141 1918.92 471.673 1922.44 C 486.324 1910.96 490.656 1911.22 505.365 1922.63 C 511.212 1919.81 518.638 1915.16 525.034 1917.13 C 527.069 1917.75 528.756 1919.19 529.694 1921.1 C 533.079 1927.96 527.531 1955.82 528.119 1967.43 C 531.907 1963.58 536.532 1958.55 540.782 1955.45 C 542.8 1961.9 528.305 1988.63 515.505 1983.68 C 507.061 1975.38 517.66 1944.09 512.293 1932.4 C 499.415 1921.91 489.761 1967.48 480.736 1976.37 L 478.753 1976.62 C 472.523 1968.61 483.083 1942.45 479.853 1930.9 C 477.457 1928.2 478.899 1928.92 475.48 1928.47 C 458.827 1936.29 453.902 1978.69 441.743 1983.61 C 434.981 1980.85 436.356 1970.5 430.495 1974.13 C 426.551 1976.57 424.381 1979.12 419.473 1981.38 C 412.807 1980.79 405.036 1979.42 398.836 1979.19 C 390.19 1978.86 378.198 1989.61 371.019 1980.54 C 366.732 1975.13 366.127 1969.54 360.367 1966.07 C 343.867 1967.01 329.819 2022.86 319.116 2034.56 C 313.799 2040.38 307.91 2043.99 301.551 2048 L 294.034 2048 C 268.019 2012.04 317.346 2006.14 319.922 1988.01 C 315.939 1983.2 311.339 1985.12 307.127 1980.96 C 304.104 1977.97 301.154 1972.38 298.85 1968.57 C 289.929 1977.5 288.213 1980.03 276.885 1985.17 C 269.716 1980.99 265.191 1978.21 258.539 1973.33 C 239.625 1986.29 245.082 1986.85 225.243 1979.67 C 222.715 1978.75 199.06 1981.2 192.706 1980.99 z M 392.339 1961.85 C 397.201 1957.16 406.854 1937.98 403.069 1931.44 L 401.167 1930.42 C 394.705 1937.72 384.7 1952.81 392.339 1961.85 z M 214.231 1963.86 C 219.749 1958.99 230.688 1937.41 226.293 1930.61 C 218.713 1937.38 207.96 1953.8 214.231 1963.86 z"/>
</g></svg></svg><svg x="824" y="710" width="96" height="96" xmlns="http://www.w3.org/2000/svg" preserveAspectRatio="none"><svg version="1.1" xmlns="http://www.w3.org/2000/svg" style="display: block;" width="96" height="96" viewBox="212.98 215.72 771.76 771.76" preserveAspectRatio="none"><g id="svg-group-a43120a3-ed19-4dd8-a95d-8273fbb23d4c">
<path transform="translate(0,0)" fill="rgb(215,95,119)" d="M 589.327 215.722 C 590.417 216.129 599.706 225.061 602.061 226.873 C 630.563 248.797 654.965 257.535 687.941 266.969 C 703.209 271.337 750.706 315.769 762.321 328.239 C 769.298 328.308 782.701 328.665 789.02 327.517 C 855.362 315.465 864.418 352.907 893.159 404.585 C 903.498 422.906 914.845 440.639 927.147 457.704 C 943.172 479.836 969.635 499.613 981.163 517.266 C 980.047 522.581 976.292 530.58 974.137 536.135 C 969.385 548.071 964.971 560.139 960.9 572.324 C 956.516 585.667 952.496 599.127 948.845 612.688 C 946.424 621.846 940.887 645.434 937.843 651.977 C 920.321 689.644 912.388 690.373 931.726 730.42 C 941.231 750.105 946.675 790.943 943.789 814.703 C 931.338 828.15 905.427 831.139 887.846 837.449 C 845.523 852.639 813.866 878.19 777.089 902.696 C 758.836 914.858 736.23 922.121 717.69 933.416 C 694.948 947.272 675.832 971.022 653.523 984.829 C 649.125 987.486 632.675 971.408 629.113 968.248 C 624.001 963.709 606.829 948.678 601.055 946.934 C 582.283 942.218 561.442 942.153 541.978 939.816 C 495.685 934.256 464.981 909.326 426.848 884.524 C 418.406 888.252 406.519 891.392 397.308 891.172 C 377.05 890.69 347.864 875.508 331.935 863.104 C 318.836 852.904 306.92 840.442 292.832 831.618 C 283.783 825.95 273.015 823.366 263.009 819.827 C 254.787 816.918 245.879 812.733 241.999 804.396 C 233.031 785.131 233.811 701.585 238.804 679.933 C 242.328 664.653 250.622 650.307 256.049 635.583 C 252.163 627.153 241.65 609.383 239.48 600.934 C 232.521 573.848 233.466 542.618 230.835 514.948 C 230.143 507.667 226.52 490.39 224.54 483.508 C 222.514 476.466 218.792 468.251 216.557 460.219 C 219.471 449.235 255.491 425.466 265.605 415.911 C 290.968 391.952 314.46 366.233 339.851 342.417 C 361.277 322.32 393.689 323.925 420.95 324.068 C 457.055 291.402 485.639 264.263 534.961 257.236 C 556.737 254.134 575.095 231.559 589.327 215.722 z"/>
<path transform="translate(0,0)" fill="rgb(220,137,154)" d="M 358.079 530.948 C 359.171 531.027 360.61 531.212 361.197 532.34 C 380.087 568.617 391.942 609.679 409.525 646.408 C 416.819 661.73 425.485 676.361 435.415 690.121 C 463.602 728.383 515.347 749.073 559.788 760.366 C 591.405 768.4 610.264 771.197 638.6 787.805 C 630.285 807.567 612.596 819.195 594.354 828.695 L 587.047 830.999 C 562.664 822.396 539.235 811.275 514.815 802.705 C 487.384 793.078 401.52 775.431 386.43 753.371 C 376.101 738.27 371.417 700.601 361.81 679.872 C 352.993 660.849 337.58 647.374 327.25 629.611 C 318.063 613.816 313.863 594.409 318.787 576.511 C 324.387 556.156 340.162 540.946 358.079 530.948 z"/>
<path transform="translate(0,0)" fill="rgb(220,137,154)" d="M 597.143 761.814 C 609.062 755.025 623.255 751.792 635.582 746.189 C 653.334 738.121 672.291 729.355 689.302 719.977 C 747.764 687.748 782.937 653.051 796.63 586.377 C 799.579 572.017 802.144 558.302 803.019 543.478 C 803.374 537.551 803.19 531.604 802.47 525.71 C 801.67 519.267 797.247 506.675 798.58 502.131 L 800.656 501.559 C 804.405 502.605 807.133 506.329 809.866 509.327 C 812.116 506.506 813.107 504.666 816.673 503.87 C 823.963 504.328 831.607 510.981 831.463 518.349 C 829.498 521.404 830.62 520.449 827.145 521.868 C 837.966 524.835 845.121 531.136 846.357 542.597 C 849.444 570.681 848.373 599.339 846.632 627.556 C 845.083 652.649 828.007 662.539 812.914 680.015 C 796.954 698.494 785.571 719.574 765.026 734.65 C 736.32 755.715 692.353 775.807 655.821 773.539 C 638.226 771.101 617.33 764.202 597.143 761.814 z"/>
<path transform="translate(0,0)" fill="rgb(207,67,90)" d="M 809.866 509.327 C 812.116 506.506 813.107 504.666 816.673 503.87 C 823.963 504.328 831.607 510.981 831.463 518.349 C 829.498 521.404 830.62 520.449 827.145 521.868 C 818.368 518.262 816.206 516.136 809.866 509.327 z"/>
<path transform="translate(0,0)" fill="rgb(220,137,154)" d="M 505.576 343.427 C 510.482 343.199 515.392 343.041 520.304 342.955 C 546.571 342.731 578.107 354.932 596.67 373.149 C 568.431 378.071 553.964 373.3 526.347 369.484 C 511.565 367.441 449.882 372.314 444.694 387.357 C 450.396 395.293 466.337 386.46 470.786 394.982 C 471.123 401.194 468.037 405.689 465.044 410.862 C 453.952 430.034 445.842 450.777 435.53 470.357 C 427.975 484.706 418.346 498.178 412.236 513.223 C 408.975 521.239 408.883 529.305 409.721 537.795 C 412.967 572.896 431.215 605.052 445.472 636.761 C 453.426 654.466 462.705 686.196 466.226 704.957 C 434.442 682.27 419.998 637.641 405.275 602.792 C 397.051 583.326 386.799 557.786 381.414 537.797 C 378.023 525.111 375.879 512.124 375.013 499.02 C 371.94 455.325 374.915 423.296 404.907 390.406 C 436.716 355.523 460.197 346.53 505.576 343.427 z"/>
<path transform="translate(0,0)" fill="rgb(220,137,154)" d="M 612.309 375.233 C 651.502 373.679 685.604 405.063 704.946 437.235 C 717.538 458.18 711.543 539.915 691.027 550.143 C 686.147 547.021 689.1 529.136 687.088 523.539 C 681.762 508.723 668.794 487.402 658.953 475.913 C 638.548 452.092 593.966 431.625 563.331 430.059 L 562.246 430.009 C 556.317 429.568 550.381 429.232 544.44 429.002 C 494.697 453.727 489.818 504.246 487.977 553.37 C 487.846 556.857 488.317 560.768 486.13 563.535 C 477.556 564.08 475.187 556.437 474.437 549.089 C 471.112 516.548 468.244 491.082 489.168 463.424 C 495.995 454.55 503.673 446.363 512.092 438.981 C 528.976 423.991 590.088 378.346 612.309 375.233 z"/>
<path transform="translate(0,0)" fill="rgb(220,137,154)" d="M 555.777 440.393 C 563.007 440.221 589.469 443.404 589.366 452.402 C 584.718 455.789 564.24 454.891 557.215 455.068 C 530.145 472.471 527.624 494.444 527.204 524.257 C 527.116 530.549 531.087 538.448 536.206 542.23 C 562.831 561.843 599.714 572.346 632.654 568.151 C 640.769 567.118 667.741 551.693 673.44 558.399 C 683.09 569.754 681.949 580.103 671.458 590.276 C 641.745 608.505 618.921 598.718 586.697 595.887 C 562.97 593.803 547.741 607.642 530.926 621.731 C 510.051 595.348 507.311 548.622 504.875 515.856 C 502.777 487.647 523.772 443.308 555.777 440.393 z"/>
<path transform="translate(0,0)" fill="rgb(220,137,154)" d="M 458.764 463.707 C 459.583 464.046 459.834 464.25 460.473 464.83 C 463.384 467.478 447.009 557.254 473.863 593.048 C 494.055 619.964 543.479 646.855 574.169 661.208 C 587.506 667.446 601.839 672.75 614.773 679.708 C 618.888 681.921 628.411 687.51 630.358 691.772 C 626.118 694.101 611.37 689.331 604.223 688.51 C 601.838 687.621 584.295 684.842 580.847 684.217 C 562.209 680.838 545.277 678.159 527.521 671.28 C 476.781 651.623 456.466 622.386 434.269 574.213 C 424.207 552.376 418.501 529.447 427.986 506.295 C 433.113 493.781 446.139 469.144 458.764 463.707 z"/>
<path transform="translate(0,0)" fill="rgb(220,137,154)" d="M 942.528 501.45 C 944.378 501.805 945.671 502.544 947.193 503.654 C 951.094 506.498 954.268 511.207 954.971 516.013 C 957.95 536.365 931.673 626.629 923.198 649.258 C 920.283 657.039 916.845 664.988 911.87 671.686 C 909.73 673.48 907.527 674.118 904.846 673.81 C 898.333 665.838 918.7 623.569 918.728 611.668 C 920.031 606.457 920.628 600.001 921.737 594.898 C 927.054 570.419 926.341 520.652 942.528 501.45 z"/>
<path transform="translate(0,0)" fill="rgb(220,137,154)" d="M 767.577 503.03 C 770.243 502.803 771.353 502.871 774.026 503.096 L 774.963 504.519 C 756.202 547.406 750.405 580.053 706.847 606.492 C 673.788 626.558 631.111 630.54 593.799 620.976 C 588.908 619.551 586.293 618.417 583.556 613.878 C 583.717 613.313 583.878 612.749 584.04 612.184 C 589.301 611.856 605.867 614.305 610.494 614.641 C 637.877 616.625 659.722 614.811 685.447 605.044 C 722.796 590.865 737.872 558.128 754.744 524.567 C 758.281 517.531 761.173 507.026 767.577 503.03 z"/>
<path transform="translate(0,0)" fill="rgb(220,137,154)" d="M 726.588 464.375 C 735.311 467.808 751.198 495.077 749.893 503.395 C 746.168 527.144 724.803 560.08 708.418 576.819 C 704.749 579.848 700.203 583.702 695.427 584.251 L 694.054 583.029 C 694.105 575.008 708.535 552.709 711.856 543.49 C 718.446 525.198 726.891 506.844 727.073 486.887 C 727.139 479.653 725.982 472.324 726.52 465.209 L 726.588 464.375 z"/>
<path transform="translate(0,0)" fill="rgb(220,137,154)" d="M 568.097 511.788 C 574.478 512.019 582.253 513.489 584.436 520.469 C 583.696 524.853 584.437 523.232 581.684 526.652 C 572.198 526.779 563.354 522.818 568.097 511.788 z"/>
</g></svg></svg><svg x="108" y="710" width="97" height="96" xmlns="http://www.w3.org/2000/svg" preserveAspectRatio="none"><svg version="1.1" xmlns="http://www.w3.org/2000/svg" style="display: block;" width="97" height="96" viewBox="221.69 215.13 776.62 768.62" preserveAspectRatio="none"><g id="svg-group-ac168813-72a4-4f5b-a616-f73681bca85a">
<path transform="translate(0,0)" fill="rgb(212,86,111)" d="M 455.869 332.531 C 477.681 317.604 492.202 301.041 513.482 286.317 C 524.4 279.165 537.6 276.043 549.511 271.008 C 571.111 261.878 588.902 247.867 606.61 232.82 C 613.848 226.671 619.845 222.509 625.865 215.126 C 659.946 253.752 687.31 253.529 730.973 271.382 C 742.799 276.217 790.059 318.22 798.58 329.143 C 878.719 308.732 879.002 343.714 926.863 391.977 C 948.624 413.92 973.333 426.942 994.97 454.07 C 996.69 466.143 996.048 489.917 995.932 502.753 C 995.723 525.925 996.734 557.892 989.584 579.93 C 983.762 597.87 974.924 620.204 968.217 638.444 C 973.967 658.602 979.773 678.798 985.081 699.058 C 987.92 709.894 988.595 722.796 991.181 733.358 C 997.914 760.053 996.693 788.376 984.59 813.369 C 981.371 820.016 966.905 825.338 960.181 827.354 C 935.52 834.748 917.893 843.533 899.027 861.417 C 882.644 876.455 859.947 888.64 838.949 895.12 C 830.878 896.082 809.395 897.355 802.029 895.373 C 772.787 887.507 756.672 921.289 734.728 930.416 C 705.149 942.718 666.826 945.701 636.125 953.75 C 601.966 962.705 594.857 983.741 555.613 979.757 C 536.048 965.621 517.431 938.988 499.427 927.948 C 474.526 912.678 446.078 918.236 421.694 893.919 C 412.253 886.526 406.711 880.503 399.084 871.317 C 386.411 857.344 386.763 859.89 368.638 853.713 C 341.146 844.343 307.075 833.258 282.011 819.463 C 278.265 817.402 280.42 763.831 280.231 756.388 C 281.767 728.898 284.458 719.201 301.493 699.078 C 295.292 686.505 281.62 660.963 277.842 649.247 C 260.952 596.869 263.048 567.267 222.093 527.934 C 243.319 506.229 267.738 487.745 287.662 465.379 C 296.618 455.326 305.381 437.74 312.716 426.254 C 326.368 401.407 338.63 368.612 358.099 348.085 C 369.888 335.656 390.98 327.164 407.864 327.764 C 423.31 328.312 441.264 326.706 455.869 332.531 z"/>
<path transform="translate(0,0)" fill="rgb(218,116,138)" d="M 399.084 871.317 C 408.371 872.538 419.697 885.059 421.694 893.919 C 412.253 886.526 406.711 880.503 399.084 871.317 z"/>
<path transform="translate(0,0)" fill="rgb(224,141,154)" d="M 851.846 541.446 C 864.206 541.832 884.666 555.549 892.583 564.956 C 929.24 608.509 878.114 647.229 860.062 682.501 C 847.793 706.473 851.144 730.789 832.796 753.756 C 816.11 774.643 795.417 782.111 777.792 798.559 C 779.279 820.31 788.841 841.785 784.241 864.299 C 781.631 877.073 764.932 887.712 754.559 894.554 C 744.157 901.415 735.721 910.351 724.755 916.265 C 687.091 933.515 643.221 933.308 603.966 944.89 C 595.114 947.501 582.496 962.363 573.664 968.455 C 553.458 958.455 532.92 936.686 512.807 924.057 C 479.685 903.261 440.487 898.587 415.519 866.025 C 401.671 847.965 387.218 813.535 389.062 790.395 C 390.26 775.352 411.917 755.398 423.693 746.388 C 431.923 758.247 434.256 770.503 437.87 784.222 C 447.921 822.437 491.255 828.124 522.958 841.625 C 547.334 852.005 565.671 863.986 577.598 888.686 C 578.643 890.85 579.181 892.094 580.502 894.161 C 586.106 896.629 612.532 887.104 620.924 885.735 C 656.92 879.864 697.676 882.191 727.935 858.442 C 747.174 843.343 759.603 825.999 762.837 801.378 C 743.894 800.092 714.476 806.907 696.663 813.278 C 674.244 821.296 651.764 835.993 626.985 832.409 C 601.755 828.76 586.85 811.919 572.56 793.169 C 596.566 781.389 630.455 777.007 656.166 769.344 C 725.922 748.551 790.866 698.705 817.376 629.382 C 828 601.598 837.116 567.793 851.258 542.488 L 851.846 541.446 z"/>
<path transform="translate(0,0)" fill="rgb(224,141,154)" d="M 688.776 344.418 C 727.102 340.027 766.994 350.722 797.423 374.579 C 826.897 397.686 839.783 440.943 844.038 476.384 C 849.365 520.761 835.232 540.256 820.213 580.193 C 816.645 589.679 810.671 618.638 805.12 625.547 C 803.008 626.768 800.93 627.412 798.572 626.596 C 781.798 620.785 781.843 607.219 785.635 593.564 C 802.355 558.98 819 535.064 794.33 494.184 C 784.952 478.644 759.513 465.318 744.567 454.249 C 713.772 431.442 650.332 379.785 613.97 373.819 C 634.55 360.335 663.999 346.892 688.776 344.418 z"/>
<path transform="translate(0,0)" fill="rgb(224,141,154)" d="M 398.809 512.852 C 402.573 515.581 404.25 523.551 405.274 528.067 C 417.311 581.152 422.624 651.471 470.14 686.284 C 492.84 702.917 523.184 716.243 549.437 727.099 C 575.183 737.745 596.89 739.925 615.83 763.179 C 600.089 769.375 596.371 772.324 578.815 776.696 C 542.055 785.499 486.775 773.467 456.759 749.627 C 441.816 737.758 429.703 715.563 417.479 700.234 C 403.669 682.915 386.455 666.3 375.167 647.178 C 364.281 625.258 359.428 566.689 366.068 542.287 C 369.882 528.27 386.768 519.173 398.809 512.852 z"/>
<path transform="translate(0,0)" fill="rgb(224,141,154)" d="M 955.964 654.787 C 958.943 657.243 969.871 691.016 970.469 696.853 C 973.745 728.852 980.258 768.158 971.595 799.245 C 968.041 808.091 955.687 814.129 947.62 816.913 C 903.667 832.083 872.899 867.841 828.109 882.565 C 818.895 885.594 815.498 887.146 806.836 883.015 C 796.495 870.027 805.57 852.084 815.186 841.638 C 842.441 812.029 878.927 786.826 910.246 761.75 C 902.879 753.962 887.427 746.108 888.906 734 C 893.123 699.47 933.699 676.746 955.964 654.787 z"/>
<path transform="translate(0,0)" fill="rgb(224,141,154)" d="M 621.786 241.881 C 630.476 240.612 670.171 266.477 682.739 270.975 C 711.095 281.123 742.007 292.577 761.457 316.692 C 765.397 321.578 771.062 326.485 770.701 333.378 C 765.035 339.116 715.767 329.617 701.289 331.199 C 680.62 333.456 677.358 334.093 656.72 340.86 C 647.005 344.607 635.719 349.862 625.899 354.01 C 615.502 347.894 601.797 339.846 590.545 335.857 C 559.108 324.713 539.076 321.101 510.244 302.738 C 525.79 292.832 540.809 289.401 557.35 280.329 C 568.975 273.996 580.372 267.255 591.521 260.118 C 600.729 254.232 612.084 246.202 621.786 241.881 z"/>
<path transform="translate(0,0)" fill="rgb(224,141,154)" d="M 611.917 375.032 C 616.785 376.489 636.803 393.78 643.112 398.006 C 677.012 420.709 736.494 445.03 743.816 489.78 C 748.123 516.101 742.346 558.922 726.74 580.455 C 712.245 537.667 722.639 479.301 687.757 444.299 C 676.563 435.375 661.79 424.017 646.856 426.347 C 609.453 432.597 574.828 454.54 547.653 480.253 C 539.259 488.195 522.546 515.872 512.491 516.821 L 511.116 515.01 C 499.634 443.737 549.27 395.945 611.917 375.032 z"/>
<path transform="translate(0,0)" fill="rgb(224,141,154)" d="M 643.738 440.368 C 654.22 439.742 664.666 439.045 673.169 446.922 C 700.807 472.526 698.633 516.064 704.97 550.235 C 708.107 567.153 713.168 580.307 714.538 597.028 C 710.529 606.782 701.437 614.435 693.642 621.353 C 673.401 614.127 654.325 605.451 633.357 599.344 C 595.717 588.38 570.445 593.895 539.101 568.161 C 572.164 577.222 599.638 580.701 632.395 569.03 C 653.534 560.602 676.655 549.575 687.217 528.724 C 678.8 528.701 672.527 528.499 664.079 530.632 C 645.11 535.262 619.769 551.85 601.283 538.039 C 582.727 524.176 582.534 514.437 594.59 497.19 C 604.319 496.828 614.717 497.198 624.507 497.383 C 609.839 535.053 632.539 532.304 658.072 518.9 C 655.521 513.972 650.432 505.157 650.218 500.096 C 655.637 491.839 675.679 494.461 679.806 485.392 C 680.487 466.643 628.768 456.52 614.746 451.538 C 624.456 445.857 632.474 441.839 643.738 440.368 z"/>
<path transform="translate(0,0)" fill="rgb(218,116,138)" d="M 680.333 504.569 C 681.997 504.377 682.773 504.669 684.445 504.955 C 687.552 508.08 688.1 509.354 686.055 512.919 C 682.084 515.413 674.552 516.252 669.342 517.539 C 665.507 518.24 665.4 518.021 662.88 515.742 C 661.897 511.864 661.834 513.493 663.287 509.579 C 669.287 503.713 672.011 504.584 680.333 504.569 z"/>
<path transform="translate(0,0)" fill="rgb(224,141,154)" d="M 753.396 472.237 C 756.578 472.745 761.31 475.526 763.814 477.532 C 781.349 491.19 788.848 507.961 792.163 529.335 C 799.042 568.08 769.072 594.202 746.96 620.967 C 730.817 640.506 714.976 667.15 690.27 676.525 C 660.255 687.914 624.623 693.429 593.132 698.205 C 582.512 700.21 571.85 703.523 561.448 706.545 C 587.123 682.059 647.601 667.795 678.552 646.412 C 691.233 640.251 701.569 622.857 711.486 615.573 C 747.431 589.168 762.163 544.308 759.636 500.963 C 759.182 493.194 755.054 481.267 753.396 472.237 z"/>
<path transform="translate(0,0)" fill="rgb(224,141,154)" d="M 491.552 475.79 C 493.245 477.886 493.71 483.173 493.569 486.014 C 492.233 512.941 511.425 550.944 512.696 575.462 L 511.024 576.591 C 506.032 576.044 502.358 571.066 499.055 567.38 C 491.894 557.753 486.456 545.053 480.164 534.588 C 474.856 525.761 468.857 517.554 464.146 508.446 C 469.606 492.879 478.584 485.085 491.552 475.79 z"/>
<path transform="translate(0,0)" fill="rgb(224,141,154)" d="M 259.948 517.092 C 261.627 517.155 267.448 517.505 268.118 519.135 C 272.224 529.131 287.351 603.786 282.026 607.728 L 280.323 606.665 C 274.929 595.623 250.939 535.078 254.15 521.054 C 254.784 518.282 257.62 517.842 259.948 517.092 z"/>
</g></svg></svg></svg>